<svg width="32" height="32" viewBox="0 0 32 32" fill="none" xmlns="http://www.w3.org/2000/svg">
<path d="M26.2011 3.4141C27.0757 4.11275 27.8212 5.00139 27.7817 5.9581C28.7215 6.17031 29.4809 6.5469 30.3171 7.55464C32.681 10.0088 31.7211 13.901 29.867 15.4299C28.6064 16.6325 26.5827 17.1488 25.1533 16.7801L17.3681 24.573C17.8114 27.0472 16.5513 28.9262 15.4018 29.8658C14.0158 31.2515 10.3819 31.7909 8.44882 29.8658C7.71772 29.1377 6.996 28.3303 6.6587 27.1467C5.44816 26.7979 4.84605 26.2607 4.06013 25.474C2.65842 24.071 2.12827 21.1254 3.61221 18.8388C4.26597 17.8314 6.11886 15.8461 9.23991 16.3997L17.0626 8.59307C16.6213 6.79705 17.4397 4.67089 18.8197 3.45913C21.3631 1.07545 24.6366 2.01867 26.2011 3.4141Z" fill="black"/>
<path d="M25.7817 3.9581C25.8212 3.00139 25.0757 2.11275 24.2011 1.4141C22.6366 0.0186733 19.3631 -0.924554 16.8197 1.45913C15.4397 2.67089 14.6213 4.79705 15.0626 6.59307L7.23991 14.3997C4.11886 13.8461 2.26597 15.8314 1.61221 16.8388C0.128267 19.1254 0.658415 22.071 2.06013 23.474C2.84605 24.2607 3.44816 24.7979 4.6587 25.1467C4.996 26.3303 5.71772 27.1377 6.44882 27.8658C8.3819 29.7909 12.0158 29.2515 13.4018 27.8658C14.5513 26.9262 15.8114 25.0472 15.3681 22.573L23.1533 14.7801C24.5827 15.1488 26.6064 14.6325 27.867 13.4299C29.7211 11.901 30.681 8.00876 28.3171 5.55464C27.4809 4.5469 26.7215 4.17031 25.7817 3.9581Z" fill="black"/>
<path d="M24.0334 5.74831C24.0729 4.7916 23.7285 3.82361 22.9974 3.09267C21.6114 1.70697 19.373 1.71544 17.987 3.10114C16.8918 4.19613 16.6462 5.81039 17.3039 7.15373L7.81653 16.6417C6.47288 15.9842 4.85825 16.2297 3.76302 17.3247C2.37703 18.7076 2.37139 20.9512 3.75737 22.3368C4.48847 23.0678 5.45386 23.4092 6.41078 23.3698C6.37126 24.3264 6.71564 25.2945 7.44674 26.0226C8.83273 27.4082 11.0712 27.3998 12.4572 26.0141C13.5524 24.9191 13.7952 23.3049 13.1375 21.9615L22.6249 12.4763C23.9685 13.1338 25.5831 12.8883 26.6784 11.7933C28.0644 10.4076 28.07 8.16403 26.684 6.77839C25.9529 6.0503 24.9903 5.7088 24.0334 5.74831Z" fill="#54A0FF"/>
</svg>
