<svg width="26" height="31" viewBox="0 0 26 31" fill="none" xmlns="http://www.w3.org/2000/svg">
<path d="M21.1881 8.22174C19.6063 8.22174 19.0918 8.67659 19.0869 8.69072V7.26219C19.0869 5.2826 17.2905 1.94824 13.5747 1.94824C9.85902 1.94824 8.06874 5.08746 8.06874 7.5058V11.6485C7.7259 11.5079 7.15559 11.3216 6.45913 11.3216C3.24392 11.3216 2.24414 14.267 2.24414 15.5131V17.9512C2.24376 18.672 2.71886 19.9957 2.98105 20.6269C3.37463 21.5752 4.56183 22.7685 5.65959 23.5404C6.48123 24.1082 6.95787 24.2744 8.06013 24.5042L8.0603 30.9287H19.0799V23.0492C19.7564 23.0496 20.0231 22.9343 20.5966 22.6865C20.6137 22.6791 20.6311 22.6716 20.6488 22.664C22.0001 22.0807 22.7565 21.559 23.6185 20.4927C24.7311 19.1165 25.2504 17.4101 25.2504 15.9542V12.4662C25.2504 10.8272 24.0107 8.22174 21.1881 8.22174Z" fill="black"/>
<path d="M17.0869 6.92881C17.0918 6.91467 17.6063 6.45983 19.1881 6.45983C22.0107 6.45983 23.2504 9.06531 23.2504 10.7042V14.1922C23.2504 15.6482 22.7311 17.3546 21.6185 18.7308C20.7565 19.7971 20.0001 20.3187 18.6488 20.9021C18.0386 21.1654 17.7766 21.2877 17.0799 21.2873V29.1668H6.0603L6.06013 22.7423C4.95787 22.5125 4.48123 22.3462 3.65959 21.7785C2.56182 21.0066 1.37463 19.8133 0.981046 18.8649C0.718864 18.2338 0.243758 16.9101 0.244141 16.1893V13.7512C0.244141 12.5051 1.24392 9.55965 4.45913 9.55965C5.15559 9.55965 5.7259 9.74596 6.06874 9.88659V5.74388C6.06874 3.32554 7.85902 0.186327 11.5747 0.186327C15.2905 0.186327 17.0869 3.52069 17.0869 5.50028V6.92881Z" fill="black"/>
<path d="M19.0348 8.46011C17.8127 8.46011 16.8223 9.47036 16.8223 10.7169V14.1533C16.8223 14.2537 16.804 14.3372 16.7709 14.417C16.7221 14.5357 16.6348 14.6441 16.5275 14.7174C16.4186 14.7906 16.303 14.831 16.1576 14.8317H15.0871V5.76074C15.0871 3.78115 13.5142 2.17676 11.5734 2.17676C9.63274 2.17676 8.05979 3.7812 8.05979 5.76074V16.3361H7.41053C7.30244 16.3361 7.21087 16.3152 7.1236 16.2779C6.99397 16.2226 6.87655 16.1236 6.79646 16.0024C6.71671 15.8793 6.67296 15.7463 6.67181 15.5826V13.8141C6.67181 12.5679 5.68138 11.5572 4.45927 11.5572C3.23754 11.5572 2.24707 12.5679 2.24707 13.8141V15.5826C2.24669 16.3035 2.39145 17.0021 2.65363 17.6332C3.04721 18.5816 3.69939 19.3812 4.52179 19.9486C5.34342 20.5164 6.34897 20.8501 7.41053 20.8494H8.05979V27.1768H15.0871V19.345H16.1576C16.8543 19.3454 17.5291 19.1996 18.1392 18.9362C19.0557 18.5402 19.8282 17.8853 20.3766 17.0578C20.925 16.2317 21.2481 15.2208 21.2471 14.1533V10.717C21.247 9.47036 20.2565 8.46011 19.0348 8.46011Z" fill="#1DD1A1"/>
</svg>
