<svg width="32" height="25" viewBox="0 0 32 25" fill="none" xmlns="http://www.w3.org/2000/svg">
<path d="M15.4602 4.54623C15.2998 4.56963 15.1151 4.59657 14.82 4.6261C14.6774 4.55125 14.4896 4.43274 14.2652 4.29114C13.1986 3.61811 11.3053 2.42351 9.51203 2.9172C8.01164 3.12571 6.82003 4.40351 6.40272 5.57818C6.08491 6.47274 6.09009 7.21974 6.09464 7.87441C6.09606 8.0794 6.09742 8.27534 6.08878 8.46392C6.05256 9.25479 6.08878 10.8909 6.56572 11.9051C6.46309 12.0138 6.17835 13.2272 6.17835 13.7282C1.52532 14.9715 2.44181 18.9629 4.81655 19.7481C4.47481 21.5356 6.94585 24.0855 9.45195 22.2016C11.0292 23.3845 14.5125 24.3133 17.0606 24.3133C17.0971 24.3133 17.1402 24.3136 17.1896 24.3139C18.1908 24.321 21.79 24.3466 25.3813 22.2192C26.2407 23.0161 28.2836 23.2192 29.4282 21.7153C30.2027 20.6975 30.0297 19.7348 30.0297 19.7348C30.5219 19.5356 30.9789 19.2778 31.427 18.635C32.0255 17.7764 31.9437 16.8771 31.8217 16.3199C31.5779 15.4552 31.0208 14.7298 30.0864 14.3119C29.9617 14.2662 29.7434 14.173 29.5094 14.0731C29.1818 13.9334 28.8234 13.7804 28.6471 13.7257C28.6007 12.8436 28.5659 12.6637 28.2409 11.8976C28.6761 11.2128 28.74 9.64003 28.6935 8.47932C28.6935 8.47932 28.7864 6.45969 28.415 5.68782C27.5677 3.31416 25.4726 2.8262 24.2493 2.8262C22.8588 2.8262 21.1938 3.88451 20.3959 4.39168C20.184 4.52637 20.0332 4.62219 19.965 4.64898C19.6229 4.61426 19.465 4.58034 19.327 4.55068C19.0589 4.49306 18.8657 4.45154 17.5411 4.45154C16.1095 4.45154 15.86 4.48792 15.4602 4.54623Z" fill="black"/>
<path d="M12.82 2.6261C13.8502 2.52299 13.5349 2.45154 15.5411 2.45154C17.5474 2.45154 16.9581 2.5468 17.965 2.64898C18.29 2.5213 20.4895 0.826199 22.2493 0.826199C23.4726 0.826199 25.5677 1.31416 26.415 3.68782C26.7864 4.45969 26.6935 6.47932 26.6935 6.47932C26.74 7.64003 26.6761 9.2128 26.2409 9.89762C26.5659 10.6637 26.6007 10.8436 26.6471 11.7257C26.9493 11.8195 27.7872 12.2022 28.0864 12.3119C29.0208 12.7298 29.5779 13.4552 29.8217 14.3199C29.9437 14.8771 30.0255 15.7764 29.427 16.635C28.9789 17.2778 28.5219 17.5356 28.0297 17.7348C28.0297 17.7348 28.2027 18.6975 27.4282 19.7153C26.2836 21.2192 24.2407 21.0161 23.3813 20.2192C19.6127 22.4516 15.8354 22.3133 15.0606 22.3133C12.5125 22.3133 9.02921 21.3845 7.45195 20.2016C4.94585 22.0855 2.47481 19.5356 2.81655 17.7481C0.441812 16.9629 -0.474679 12.9715 4.17835 11.7282C4.17835 11.2272 4.46309 10.0138 4.56572 9.9051C4.08878 8.89086 4.05256 7.25479 4.08878 6.46392C4.12501 5.67306 3.9854 4.75284 4.40272 3.57818C4.82003 2.40351 6.01164 1.12571 7.51203 0.917198C9.68261 0.31965 11.9996 2.19547 12.82 2.6261Z" fill="black"/>
<path fill-rule="evenodd" clip-rule="evenodd" d="M15.3835 4.44935C13.6623 4.44935 13.4907 4.63151 12.5999 4.63151C11.8576 4.63151 9.63059 2.80859 8.51713 2.80859C7.40366 2.80859 6.10462 3.46484 6.10462 5.36068V7.54818C6.10686 8.1224 6.31481 9.88256 7.12868 9.41216C6.16647 10.5532 6.06926 11.8836 6.08248 13.1716C5.82333 13.2468 5.55891 13.3315 5.3023 13.4194C4.5071 13.6923 3.66376 14.0402 3.28279 14.2871C2.87819 14.5492 2.76203 15.0909 3.02333 15.4968C3.28462 15.9028 3.82443 16.0193 4.22902 15.7572C4.41066 15.6395 5.06766 15.3494 5.86658 15.0754C5.95486 15.0451 6.04331 15.0155 6.13129 14.987C6.1851 15.4931 6.31862 15.9551 6.5171 16.376L6.48968 16.3905C6.01327 16.643 5.57122 16.9331 5.28935 17.118C5.24057 17.15 5.1966 17.1788 5.15807 17.2037C4.75348 17.4659 4.63732 18.0076 4.89862 18.4135C5.15991 18.8195 5.69972 18.936 6.10432 18.6739C6.15213 18.6428 6.20308 18.6095 6.25686 18.5742C6.54212 18.3874 6.90687 18.1485 7.30453 17.9377C7.39777 17.8882 7.4875 17.8434 7.57334 17.8031C9.58526 19.6959 13.1973 20.3086 15.3835 20.3086C17.5696 20.3086 21.1817 19.6959 23.1937 17.8031C23.2795 17.8434 23.3691 17.8882 23.4624 17.9377C23.8601 18.1485 24.2248 18.3874 24.51 18.5742C24.5639 18.6095 24.6148 18.6428 24.6626 18.6739C25.0672 18.936 25.607 18.8195 25.8684 18.4135C26.1296 18.0076 26.0135 17.4659 25.6088 17.2037C25.5704 17.1788 25.5264 17.15 25.4776 17.118C25.1957 16.9331 24.7536 16.643 24.2773 16.3905L24.2499 16.376C24.4484 15.9549 24.5819 15.4931 24.6357 14.9868C24.7239 15.0154 24.8125 15.0449 24.9008 15.0754C25.6998 15.3494 26.3568 15.6395 26.5385 15.7572C26.943 16.0193 27.4829 15.9028 27.7441 15.4968C28.0054 15.0909 27.8893 14.5492 27.4847 14.2871C27.1037 14.0402 26.2603 13.6923 25.4651 13.4194C25.2084 13.3313 24.9439 13.2468 24.6846 13.1715C24.6977 11.8835 24.6005 10.5532 23.6383 9.41216C24.4522 9.88256 24.6601 8.1224 24.6625 7.54818V5.36081C24.6625 3.46497 23.3633 2.80872 22.2499 2.80872C21.1364 2.80872 18.9095 4.63151 18.1672 4.63151C17.2764 4.63151 17.1049 4.44935 15.3835 4.44935Z" fill="#53E9E0"/>
<path d="M11.8833 10.5586C11.4134 10.5586 11.1002 10.876 10.9415 11.1425C10.7761 11.4204 10.6973 11.7572 10.6973 12.0898C10.6973 12.4225 10.7761 12.7593 10.9415 13.0372C11.1002 13.3036 11.4134 13.6211 11.8833 13.6211C12.3532 13.6211 12.6664 13.3036 12.8251 13.0372C12.9905 12.7593 13.0693 12.4225 13.0693 12.0898C13.0693 11.7572 12.9905 11.4204 12.8251 11.1425C12.6664 10.876 12.3532 10.5586 11.8833 10.5586Z" fill="black"/>
<path d="M18.8833 10.5586C18.4134 10.5586 18.1002 10.876 17.9415 11.1425C17.7761 11.4204 17.6973 11.7572 17.6973 12.0898C17.6973 12.4225 17.7761 12.7593 17.9415 13.0372C18.1002 13.3036 18.4134 13.6211 18.8833 13.6211C19.3532 13.6211 19.6664 13.3036 19.8251 13.0372C19.9905 12.7593 20.0693 12.4225 20.0693 12.0898C20.0693 11.7572 19.9905 11.4204 19.8251 11.1425C19.6664 10.876 19.3532 10.5586 18.8833 10.5586Z" fill="black"/>
<path d="M16.6973 15.5586C16.6973 15.1624 16.3863 14.8983 16.1253 14.7645C15.853 14.625 15.5231 14.5586 15.1973 14.5586C14.8714 14.5586 14.5415 14.625 14.2693 14.7645C14.0082 14.8983 13.6973 15.1624 13.6973 15.5586C13.6973 15.9548 14.0082 16.2189 14.2693 16.3526C14.5415 16.4922 14.8714 16.5586 15.1973 16.5586C15.5231 16.5586 15.853 16.4922 16.1253 16.3526C16.3863 16.2189 16.6973 15.9548 16.6973 15.5586Z" fill="black"/>
</svg>
