<svg width="31" height="32" viewBox="0 0 31 32" fill="none" xmlns="http://www.w3.org/2000/svg">
<path d="M8.44872 13.8727C8.47839 13.8785 8.50576 13.8838 8.53066 13.8885C8.57955 13.9205 8.63968 13.9657 8.69745 14.0231C8.80428 14.1294 8.88702 14.257 8.90493 14.4354C8.87081 14.4735 8.80708 14.5391 8.69424 14.6365C8.62578 14.6956 8.53198 14.7718 8.42232 14.8609C8.14899 15.0829 7.77708 15.385 7.4531 15.7021C6.42511 16.7082 5.42581 18.2326 5.42581 20.8411C5.42581 23.5072 6.80576 25.8292 8.84041 27.4557C10.873 29.0806 13.6063 30.0576 16.4722 30.0576C19.3017 30.0576 22.6218 29.1676 25.2602 27.3655C27.9198 25.5488 29.9521 22.7488 29.9521 18.9764C29.9521 16.2036 29.9092 14.4345 29.6727 13.4386C29.5613 12.9692 29.3329 12.3216 28.7044 12.0162C28.0756 11.7106 27.4498 11.9469 27.121 12.0928C26.772 12.2476 26.4037 12.4608 25.996 12.6969C24.6477 13.4774 22.8672 14.5082 19.9205 14.5082C18.9283 14.5082 18.3874 14.3625 18.1244 14.2435C19.196 12.6348 19.8583 10.0603 19.4402 7.78858C19.2132 6.55557 18.6556 5.34974 17.6054 4.45512C16.5504 3.55642 15.0991 3.05762 13.2487 3.05762H13.2374L13.2262 3.05787C10.7096 3.11442 9.08237 4.27091 8.11193 5.57775C7.40431 6.53068 7.03947 7.57085 6.90853 8.31887C6.65084 8.36749 6.31728 8.40753 5.9189 8.45536L5.89038 8.45878C5.43947 8.51293 4.90149 8.57813 4.46264 8.68715C4.24534 8.74113 3.98861 8.82052 3.75776 8.94978C3.54464 9.06912 3.17763 9.3306 3.05853 9.82211C2.80977 10.8487 3.37465 11.6313 3.94085 12.1071C4.50383 12.5803 5.2514 12.9259 5.92177 13.175C6.60979 13.4306 7.30342 13.6158 7.81762 13.7363C8.07659 13.797 8.29435 13.8423 8.44872 13.8727Z" fill="black" stroke="black" stroke-width="2"/>
<path d="M6.44872 11.8727C6.47839 11.8785 6.50576 11.8838 6.53066 11.8885C6.57955 11.9205 6.63968 11.9657 6.69745 12.0231C6.80428 12.1294 6.88702 12.257 6.90493 12.4354C6.87081 12.4735 6.80708 12.5391 6.69424 12.6365C6.62578 12.6956 6.53198 12.7718 6.42232 12.8609C6.14899 13.0829 5.77708 13.385 5.4531 13.7021C4.42511 14.7082 3.42581 16.2326 3.42581 18.8411C3.42581 21.5072 4.80576 23.8292 6.84041 25.4557C8.87303 27.0806 11.6063 28.0576 14.4722 28.0576C17.3017 28.0576 20.6218 27.1676 23.2602 25.3655C25.9198 23.5488 27.9521 20.7488 27.9521 16.9764C27.9521 14.2036 27.9092 12.4345 27.6727 11.4386C27.5613 10.9692 27.3329 10.3216 26.7044 10.0162C26.0756 9.71063 25.4498 9.9469 25.121 10.0928C24.772 10.2476 24.4037 10.4608 23.996 10.6969C22.6477 11.4774 20.8672 12.5082 17.9205 12.5082C16.9283 12.5082 16.3874 12.3625 16.1244 12.2435C17.196 10.6348 17.8583 8.06034 17.4402 5.78858C17.2132 4.55557 16.6556 3.34974 15.6054 2.45512C14.5504 1.55642 13.0991 1.05762 11.2487 1.05762H11.2374L11.2262 1.05787C8.70963 1.11442 7.08237 2.27091 6.11193 3.57775C5.40431 4.53068 5.03947 5.57085 4.90853 6.31887C4.65084 6.36749 4.31728 6.40753 3.9189 6.45536L3.89038 6.45878C3.43947 6.51293 2.90149 6.57813 2.46264 6.68715C2.24534 6.74113 1.98861 6.82052 1.75776 6.94978C1.54464 7.06912 1.17763 7.3306 1.05853 7.82211C0.809767 8.84868 1.37465 9.63127 1.94085 10.1071C2.50383 10.5803 3.2514 10.9259 3.92177 11.175C4.60979 11.4306 5.30342 11.6158 5.81762 11.7363C6.07659 11.797 6.29435 11.8423 6.44872 11.8727Z" fill="#FECA57" stroke="black" stroke-width="2"/>
<path d="M10.0911 6.70374C10.0911 6.0801 9.62273 6.05762 9.04558 6.05762C8.46894 6.05762 8 6.0801 8 6.70374C8 7.32795 8.46894 7.83456 9.04558 7.83456C9.62273 7.83456 10.0911 7.32795 10.0911 6.70374Z" fill="black"/>
</svg>
