<svg width="29" height="32" viewBox="0 0 29 32" fill="none" xmlns="http://www.w3.org/2000/svg">
<path d="M13.0781 5.01475C13.7124 3.48546 16.0353 1.86689 17.5922 2.04926C17.9804 2.04917 18.9557 2.09236 19.3011 2.24362C19.6947 2.34103 20.8951 2.91821 21.409 3.17625L24.1045 4.52398L24.1245 4.53402C24.5321 4.7384 25.8562 5.40237 26.153 5.6992C26.8124 6.2055 27.7437 7.37187 27.8997 8.19059C27.92 8.29742 27.9535 8.41241 27.9889 8.53429C28.059 8.77527 28.137 9.04315 28.1369 9.32808L28.1796 9.91851C28.1796 10.1075 28.1817 10.3281 28.1838 10.5525C28.1882 11.0128 28.1927 11.489 28.1796 11.7411C28.0866 13.525 27.5121 14.8471 26.9217 15.3605C25.8489 16.5285 24.2174 17.4424 22.6606 17.2601C22.6394 17.2576 22.6169 17.255 22.5932 17.2523C22.2233 17.2094 21.5605 17.1327 21.2359 16.9905C21.1447 16.9506 21.034 16.9039 20.9108 16.8519C20.5711 16.7085 20.1371 16.5253 19.7599 16.336L18.7716 15.8482C18.7221 15.8234 18.6745 15.7999 18.6282 15.7771C18.5316 15.7295 18.4413 15.6849 18.3542 15.6383V23.1308C18.3542 28.3264 13.8687 31.1988 10.4904 31.0759C5.82504 31.1491 2.5457 26.8516 2.6839 23.1585C2.6839 19.4532 5.59328 15.358 10.712 15.358C11.6103 15.358 11.752 15.4028 12.1278 15.5217C12.2321 15.5546 12.3544 15.5933 12.5159 15.6383L12.5232 9.71V8.50273C12.5234 8.36582 12.5218 8.20224 12.5201 8.03484C12.5168 7.71278 12.5134 7.37658 12.5232 7.18896C12.5232 6.35601 12.82 5.64276 12.991 5.23196C13.0269 5.14564 13.0573 5.07267 13.0781 5.01475Z" fill="black"/>
<path d="M15.5922 0.0492197C14.0353 -0.133151 11.7124 1.48541 11.0781 3.01471C10.9579 3.34823 10.5232 4.18093 10.5232 5.18891C10.5083 5.47407 10.5239 6.10237 10.5232 6.50269V7.1084V7.70996L10.5159 13.6383C9.77239 13.4311 9.85958 13.3579 8.71199 13.3579C3.59328 13.3579 0.683896 17.4531 0.683896 21.1584C0.545699 24.8516 3.82504 29.149 8.49042 29.0759C11.8687 29.1987 16.3542 26.3264 16.3542 21.1308V13.6383C16.483 13.7072 16.6188 13.7716 16.7716 13.8482L17.7599 14.3359C18.2738 14.5939 18.8932 14.8405 19.2359 14.9905C19.5814 15.1418 20.3097 15.219 20.6606 15.26C22.2174 15.4424 23.8489 14.5285 24.9217 13.3605C25.5121 12.8471 26.0866 11.5249 26.1796 9.74104C26.1991 9.36619 26.1796 8.49541 26.1796 7.91847L26.1369 7.32803C26.137 6.899 25.9602 6.5086 25.8997 6.19055C25.7437 5.37183 24.8124 4.20546 24.153 3.69916C23.8511 3.39727 22.4867 2.71564 22.1045 2.52394L19.409 1.17621C18.8951 0.91817 17.6947 0.34099 17.3011 0.243575C16.9557 0.0923191 15.9804 0.0491267 15.5922 0.0492197Z" fill="black"/>
<path d="M16.2822 2.08063C14.7252 1.89825 13.2479 2.81513 12.7141 4.29507C12.5938 4.6286 12.5515 4.98919 12.5318 5.36717C12.5169 5.65233 12.5132 5.99223 12.5125 6.39255L12.5121 6.95389C12.5121 6.95983 12.5121 6.96575 12.5121 6.97164V16.9236C11.4682 15.9397 10.0638 15.3371 8.51927 15.3371C5.29632 15.3371 2.68359 17.9608 2.68359 21.1974C2.68359 24.434 5.29632 27.0576 8.51927 27.0576C11.7423 27.0576 14.3549 24.434 14.3549 21.1974V10.3536C14.4837 10.4225 14.6231 10.4925 14.776 10.5691L18.1023 12.2392C18.6162 12.4972 19.0344 12.7072 19.3771 12.8572C19.7225 13.0085 20.0626 13.1318 20.4135 13.1729C21.9703 13.3553 23.4477 12.4383 23.9815 10.9585C24.1019 10.6249 24.144 10.2643 24.1639 9.88636C24.1835 9.51151 24.1835 9.04203 24.1835 8.46508L24.1836 8.36289C24.1837 7.93386 24.1838 7.59823 24.1233 7.28018C23.9672 6.46146 23.5165 5.72909 22.8571 5.22279C22.6008 5.02609 22.3019 4.87615 21.9197 4.68445L18.5934 3.01433C18.0795 2.75629 17.6613 2.54631 17.3186 2.39631C16.9731 2.24506 16.6331 2.12172 16.2822 2.08063Z" fill="#FF9F43"/>
</svg>
