<svg width="30" height="32" viewBox="0 0 30 32" fill="none" xmlns="http://www.w3.org/2000/svg">
<path d="M11.1976 28.4693C11.2334 28.6013 11.2927 28.727 11.3911 28.952C11.4974 29.5188 12.534 30.2179 12.8081 30.3099C15.0839 31.0727 18.1751 31.3728 20.4714 30.6759L21.6758 30.3099C21.9946 30.2154 22.7267 29.7431 22.9629 29.2944C23.5075 28.4918 23.4877 27.6308 23.4603 26.4402C23.4539 26.1595 23.447 25.8604 23.447 25.5395C23.447 25.2131 23.4502 24.9097 23.4533 24.6273C23.4643 23.5898 23.4724 22.8374 23.3053 22.2805C25.6669 21.9263 30.0004 19.28 30.0004 13.0349C30.0004 11.2448 29.5202 9.0731 28.4535 7.93394C28.6208 7.5271 28.8904 4.85208 27.568 2.47819C27.568 2.47819 24.923 0.967185 21.1445 3.60787C19.8059 3.24171 18.7764 3.21028 17.3541 3.21028C15.9319 3.21028 14.8197 3.24171 13.4811 3.60787C9.28934 1.02582 7.03403 2.45651 7.03403 2.45651C5.92409 4.86339 5.82962 6.87073 6.16024 7.93344C5.09355 9.0726 4.65481 10.8485 4.65481 12.6182C4.65481 13.8667 4.76497 16.2719 5.73042 17.9794C4.32908 17.9997 3.22273 18.5761 2.96725 20.1C2.84791 21.6697 4.22596 22.4931 4.79352 22.8001C4.98813 22.9728 5.16047 23.3159 5.37401 23.7412C6.08039 25.1479 7.23762 27.4524 11.1432 27.4524C11.1432 28.0532 11.1432 28.2686 11.1976 28.4693Z" fill="black"/>
<path d="M9.39114 26.952C9.14318 26.3852 9.14318 26.4486 9.14318 25.4524C4.05697 25.4524 3.63188 21.544 2.79352 20.8001C2.22596 20.4931 0.847907 19.6697 0.967248 18.1C1.22273 16.5761 2.32908 15.9997 3.73042 15.9794C2.76497 14.2719 2.65481 11.8667 2.65481 10.6182C2.65481 8.84846 3.09355 7.0726 4.16024 5.93344C3.82962 4.87073 3.92409 2.86339 5.03403 0.456508C5.03403 0.456508 7.28934 -0.974177 11.4811 1.60787C12.8197 1.24171 13.9319 1.21028 15.3541 1.21028C16.7764 1.21028 17.8059 1.24171 19.1445 1.60787C22.923 -1.03281 25.568 0.478194 25.568 0.478194C26.8904 2.85208 26.6208 5.5271 26.4535 5.93394C27.5202 7.0731 28.0004 9.24483 28.0004 11.0349C28.0004 17.28 23.6669 19.9263 21.3053 20.2805C21.5178 20.989 21.447 22.0138 21.447 23.5395C21.447 25.2215 21.6359 26.3026 20.9629 27.2944C20.7267 27.7431 19.9946 28.2154 19.6758 28.3099L18.4714 28.6759C16.1751 29.3728 13.0839 29.0727 10.8081 28.3099C10.534 28.2179 9.49741 27.5188 9.39114 26.952Z" fill="black"/>
<path d="M11.1095 23.2744C11.1095 24.2706 11.1207 25.2235 11.1267 25.8148C11.1297 26.1078 11.3155 26.3673 11.5896 26.4593C13.8654 27.2221 16.3171 27.2576 18.6134 26.5607L18.934 26.4633C19.2431 26.3696 19.4553 26.0816 19.4576 25.7541C19.4633 24.939 19.4757 23.5121 19.4757 21.8301C19.4757 20.3044 18.9529 19.3279 18.3463 18.8194C22.0693 18.4126 25.9805 17.0293 25.9805 10.7842C25.9805 8.99413 25.3321 7.54984 24.2654 6.41067C24.4327 6.00383 25.0183 4.33578 24.0981 2.09815C24.0981 2.09815 22.6967 1.65062 19.4967 3.7662C18.1581 3.40004 16.7358 3.21697 15.3135 3.21697C13.8912 3.21697 12.469 3.40004 11.1304 3.7662C7.93032 1.67096 6.52897 2.09815 6.52897 2.09815C5.60869 4.33578 6.19432 6.00383 6.36165 6.41067C5.29496 7.54984 4.64657 9.01448 4.64657 10.7842C4.64657 17.0089 8.53687 18.4126 12.2598 18.8194C11.7788 19.2262 11.3396 19.9382 11.1932 20.996C10.231 21.4232 7.82574 22.1148 6.31982 19.6534C6.00609 19.1652 5.06488 17.965 3.7472 17.9854C2.34586 18.0057 3.18248 18.7583 3.76812 19.0635C4.47925 19.45 5.29496 20.8943 5.4832 21.3622C5.81785 22.2776 6.90545 24.027 11.1095 23.2744Z" fill="#FF9FF3"/>
</svg>
