<svg width="22" height="32" viewBox="0 0 22 32" fill="none" xmlns="http://www.w3.org/2000/svg">
<path d="M19.6207 13.7944L16.3487 12.1669L17.3284 5.48204C17.2305 1.47348 12.8331 1.41334 11.5718 3.20171L2.80687 14.4705C1.25865 16.3881 2.19444 18.6496 3.92285 19.4523C3.92285 19.4523 5.35268 19.9938 7.99008 21.1341L7.05467 27.6006C7.05467 31.1677 11.0034 32.0405 12.8381 29.8363L20.4955 18.3438C21.5887 16.7419 21.0956 14.7693 19.6207 13.7944Z" fill="black"/>
<path d="M14.3487 10.1669L17.6207 11.7944C19.0956 12.7692 19.5887 14.7418 18.4955 16.3437L10.8381 27.8362C9.00335 30.0404 5.05467 29.1676 5.05467 25.6005L5.99008 19.134C3.35268 17.9937 1.92285 17.4522 1.92285 17.4522C0.194435 16.6495 -0.741348 14.388 0.806869 12.4704L9.57178 1.20163C10.8331 -0.586752 15.2305 -0.52661 15.3284 3.48196L14.3487 10.1669Z" fill="black"/>
<path d="M17.0247 14.2299C16.9779 14.0603 16.8959 13.9024 16.7841 13.7667C16.6722 13.631 16.533 13.5204 16.3756 13.4423L12.144 11.3419L13.2799 3.47786C13.3172 3.20532 13.2638 2.92805 13.1278 2.68901C12.9919 2.44998 12.781 2.26253 12.5279 2.15571C12.2748 2.0489 11.9936 2.02868 11.7278 2.09818C11.4621 2.16769 11.2266 2.32305 11.058 2.54018L2.32014 13.7924C2.20154 13.9441 2.11955 14.1212 2.08058 14.3098C2.0416 14.4985 2.04669 14.6937 2.09546 14.8801C2.15056 15.0665 2.24633 15.2384 2.37586 15.3833C2.50538 15.5281 2.66542 15.6424 2.84441 15.7177L8.17449 17.8556L7.03857 25.6321C6.99996 25.9113 7.05661 26.1952 7.19936 26.4381C7.3421 26.6809 7.56256 26.8683 7.82498 26.9699C7.97126 27.0306 8.1285 27.0604 8.28683 27.0574C8.49243 27.0563 8.69458 27.0044 8.87533 26.9063C9.05607 26.8081 9.20981 26.6668 9.32289 26.4948L16.8125 15.2426C16.9179 15.0988 16.9915 14.934 17.0281 14.7593C17.0647 14.5846 17.0635 14.4041 17.0247 14.2299Z" fill="#9059FB"/>
</svg>
