<svg width="32" height="32" viewBox="0 0 32 32" fill="none" xmlns="http://www.w3.org/2000/svg">
<path d="M25.7705 3.4141C26.645 4.11275 27.3905 5.00139 27.351 5.9581C28.2908 6.17031 29.0502 6.5469 29.8864 7.55464C32.2504 10.0088 31.2905 13.901 29.4364 15.4299C28.1757 16.6325 26.1521 17.1488 24.7226 16.7801L16.9374 24.573C17.3807 27.0472 16.1207 28.9262 14.9711 29.8658C13.5851 31.2515 9.95123 31.7909 8.01815 29.8658C7.28705 29.1377 6.56534 28.3303 6.22803 27.1467C5.01749 26.7979 4.41538 26.2607 3.62947 25.474C2.22775 24.071 1.6976 21.1254 3.18155 18.8388C3.8353 17.8314 5.6882 15.8461 8.80925 16.3997L16.6319 8.59307C16.1907 6.79705 17.009 4.67089 18.389 3.45913C20.9324 1.07545 24.2059 2.01867 25.7705 3.4141Z" fill="black"/>
<path d="M25.351 3.9581C25.3905 3.00139 24.645 2.11275 23.7705 1.4141C22.2059 0.0186733 18.9324 -0.924554 16.389 1.45913C15.009 2.67089 14.1907 4.79705 14.6319 6.59307L6.80925 14.3997C3.6882 13.8461 1.8353 15.8314 1.18155 16.8388C-0.302397 19.1254 0.227751 22.071 1.62947 23.474C2.41538 24.2607 3.01749 24.7979 4.22803 25.1467C4.56534 26.3303 5.28705 27.1377 6.01815 27.8658C7.95123 29.7909 11.5851 29.2515 12.9711 27.8658C14.1207 26.9262 15.3807 25.0472 14.9374 22.573L22.7226 14.7801C24.1521 15.1488 26.1757 14.6325 27.4364 13.4299C29.2905 11.901 30.2504 8.00876 27.8864 5.55464C27.0502 4.5469 26.2908 4.17031 25.351 3.9581Z" fill="black"/>
<path d="M23.6022 5.74831C23.6417 4.7916 23.2973 3.82361 22.5662 3.09267C21.1802 1.70697 18.9418 1.71544 17.5558 3.10114C16.4606 4.19613 16.215 5.81039 16.8727 7.15373L7.38538 16.6417C6.04173 15.9842 4.4271 16.2297 3.33187 17.3247C1.94588 18.7076 1.94024 20.9512 3.32622 22.3368C4.05732 23.0678 5.02271 23.4092 5.97963 23.3698C5.94011 24.3264 6.28449 25.2945 7.01559 26.0226C8.40158 27.4082 10.64 27.3998 12.026 26.0141C13.1212 24.9191 13.364 23.3049 12.7063 21.9615L22.1937 12.4763C23.5373 13.1338 25.1519 12.8883 26.2472 11.7933C27.6332 10.4076 27.6388 8.16403 26.2528 6.77839C25.5217 6.0503 24.5591 5.7088 23.6022 5.74831Z" fill="#54A0FF"/>
</svg>
