<svg width="32" height="32" viewBox="0 0 32 32" fill="none" xmlns="http://www.w3.org/2000/svg">
<path d="M19.5114 4.3588L19.5114 4.35881C18.2925 5.57748 17.894 7.30798 18.3674 8.87234L9.80163 17.4387C8.23724 16.9655 6.50663 17.3636 5.2877 18.5821C3.51229 20.354 3.50363 23.2311 5.28176 25.0088C5.96969 25.6967 6.82048 26.1153 7.70757 26.2698C7.86301 27.1578 8.28364 28.0096 8.97173 28.6952C10.7514 30.4737 13.6225 30.459 15.3957 28.6861L15.3957 28.6861C16.6154 27.4666 17.0106 25.736 16.537 24.1726L25.1026 15.609C26.6671 16.0823 28.3978 15.684 29.6169 14.4654L29.6169 14.4653C31.3914 12.6912 31.4012 9.81428 29.6225 8.03603L29.6211 8.03467C28.934 7.35036 28.0856 6.93236 27.1995 6.77797C27.044 5.88958 26.6233 5.03759 25.9359 4.35033C24.1563 2.57109 21.2848 2.58579 19.5114 4.3588Z" fill="black" stroke="black" stroke-width="2"/>
<path d="M17.5114 2.3588L17.5114 2.35881C16.2925 3.57748 15.894 5.30798 16.3674 6.87234L7.80163 15.4387C6.23724 14.9655 4.50663 15.3636 3.2877 16.5821C1.51229 18.354 1.50363 21.2311 3.28176 23.0088C3.96969 23.6967 4.82048 24.1153 5.70757 24.2698C5.86301 25.1578 6.28364 26.0096 6.97173 26.6952C8.75136 28.4737 11.6225 28.459 13.3957 26.6861L13.3957 26.6861C14.6154 25.4666 15.0106 23.736 14.537 22.1726L23.1026 13.609C24.6671 14.0823 26.3978 13.684 27.6169 12.4654L27.6169 12.4653C29.3914 10.6912 29.4012 7.81428 27.6225 6.03603L27.6211 6.03467C26.934 5.35036 26.0856 4.93236 25.1995 4.77797C25.044 3.88958 24.6233 3.03759 23.9359 2.35033C22.1563 0.571093 19.2848 0.585794 17.5114 2.3588Z" fill="#54A0FF" stroke="black" stroke-width="2"/>
</svg>
