<svg width="26" height="31" viewBox="0 0 26 31" fill="none" xmlns="http://www.w3.org/2000/svg">
<path d="M21.6295 8.18658C20.0477 8.18658 19.5332 8.64143 19.5283 8.65557V7.22704C19.5283 5.24745 17.7319 1.91309 14.0162 1.91309C10.3004 1.91309 8.51015 5.0523 8.51015 7.47064V11.6133C8.16731 11.4727 7.597 11.2864 6.90054 11.2864C3.68533 11.2864 2.68555 14.2318 2.68555 15.478V17.916C2.68516 18.6369 3.16027 19.9605 3.42245 20.5917C3.81604 21.5401 5.00323 22.7334 6.101 23.5052C6.92263 24.073 7.39927 24.2392 8.50153 24.4691L8.50171 30.8935H19.5213V23.014C20.1978 23.0144 20.4645 22.8992 21.038 22.6514C21.0551 22.644 21.0725 22.6365 21.0902 22.6288C22.4415 22.0455 23.1979 21.5238 24.0599 20.4576C25.1725 19.0814 25.6918 17.375 25.6918 15.919V12.431C25.6918 10.7921 24.4521 8.18658 21.6295 8.18658Z" fill="black"/>
<path d="M17.5283 6.89365C17.5332 6.87951 18.0477 6.42467 19.6295 6.42467C22.4521 6.42467 23.6918 9.03016 23.6918 10.6691V14.1571C23.6918 15.6131 23.1725 17.3195 22.0599 18.6957C21.1979 19.7619 20.4415 20.2836 19.0902 20.8669C18.48 21.1303 18.218 21.2525 17.5213 21.2521V29.1316H6.5017L6.50153 22.7072C5.39927 22.4773 4.92263 22.3111 4.101 21.7433C3.00323 20.9714 1.81604 19.7782 1.42245 18.8298C1.16027 18.1986 0.685164 16.875 0.685547 16.1541V13.716C0.685547 12.4699 1.68533 9.5245 4.90054 9.5245C5.59699 9.5245 6.16731 9.71081 6.51015 9.85143V5.70873C6.51015 3.29039 8.30043 0.151171 12.0162 0.151171C15.7319 0.151171 17.5283 3.48553 17.5283 5.46512V6.89365Z" fill="black"/>
<path d="M19.4762 8.42495C18.2541 8.42495 17.2637 9.43521 17.2637 10.6818V14.1181C17.2637 14.2185 17.2454 14.302 17.2123 14.3818C17.1635 14.5005 17.0762 14.609 16.9689 14.6822C16.8601 14.7555 16.7444 14.7958 16.599 14.7965H15.5285V5.72559C15.5285 3.746 13.9556 2.1416 12.0148 2.1416C10.0741 2.1416 8.50119 3.74604 8.50119 5.72559V16.301H7.85194C7.74385 16.301 7.65227 16.2801 7.56501 16.2427C7.43538 16.1874 7.31795 16.0885 7.23787 15.9672C7.15812 15.8442 7.11436 15.7112 7.11321 15.5475V13.7789C7.11321 12.5327 6.12279 11.5221 4.90068 11.5221C3.67895 11.5221 2.68848 12.5328 2.68848 13.7789V15.5475C2.68809 16.2683 2.83285 16.9669 3.09503 17.598C3.48862 18.5464 4.14079 19.346 4.9632 19.9135C5.78483 20.4812 6.79038 20.8149 7.85194 20.8143H8.50119V27.1416H15.5285V19.3099H16.599C17.2957 19.3103 17.9705 19.1645 18.5806 18.9011C19.4971 18.5051 20.2696 17.8501 20.818 17.0227C21.3664 16.1966 21.6895 15.1856 21.6885 14.1182V10.6818C21.6884 9.43521 20.698 8.42495 19.4762 8.42495Z" fill="#1DD1A1"/>
</svg>
