<svg width="26" height="31" viewBox="0 0 26 31" fill="none" xmlns="http://www.w3.org/2000/svg">
<path d="M21.8961 8.18658C20.3143 8.18658 19.7998 8.64143 19.7949 8.65557V7.22704C19.7949 5.24745 17.9985 1.91309 14.2828 1.91309C10.567 1.91309 8.77675 5.0523 8.77675 7.47064V11.6133C8.43391 11.4727 7.8636 11.2864 7.16714 11.2864C3.95193 11.2864 2.95215 14.2318 2.95215 15.478V17.916C2.95177 18.6369 3.42687 19.9605 3.68905 20.5917C4.08264 21.5401 5.26983 22.7334 6.3676 23.5052C7.18924 24.073 7.66587 24.2392 8.76813 24.4691L8.76831 30.8935H19.7879V23.014C20.4644 23.0144 20.7311 22.8992 21.3046 22.6514C21.3217 22.644 21.3391 22.6365 21.3568 22.6288C22.7081 22.0455 23.4645 21.5238 24.3265 20.4576C25.4391 19.0814 25.9584 17.375 25.9584 15.919V12.431C25.9584 10.7921 24.7187 8.18658 21.8961 8.18658Z" fill="black"/>
<path d="M17.7949 6.89365C17.7998 6.87951 18.3143 6.42467 19.8961 6.42467C22.7187 6.42467 23.9584 9.03016 23.9584 10.6691V14.1571C23.9584 15.6131 23.4391 17.3195 22.3265 18.6957C21.4645 19.7619 20.7081 20.2836 19.3568 20.8669C18.7466 21.1303 18.4846 21.2525 17.7879 21.2521V29.1316H6.76831L6.76813 22.7072C5.66587 22.4773 5.18923 22.3111 4.3676 21.7433C3.26983 20.9714 2.08264 19.7782 1.68905 18.8298C1.42687 18.1986 0.951766 16.875 0.952148 16.1541V13.716C0.952148 12.4699 1.95193 9.5245 5.16714 9.5245C5.8636 9.5245 6.43391 9.71081 6.77675 9.85143V5.70873C6.77675 3.29039 8.56703 0.151171 12.2828 0.151171C15.9985 0.151171 17.7949 3.48553 17.7949 5.46512V6.89365Z" fill="black"/>
<path d="M19.7428 8.42495C18.5207 8.42495 17.5303 9.43521 17.5303 10.6818V14.1181C17.5303 14.2185 17.512 14.302 17.4789 14.3818C17.4301 14.5005 17.3428 14.609 17.2355 14.6822C17.1267 14.7555 17.011 14.7958 16.8656 14.7965H15.7951V5.72559C15.7951 3.746 14.2222 2.1416 12.2814 2.1416C10.3407 2.1416 8.7678 3.74604 8.7678 5.72559V16.301H8.11854C8.01045 16.301 7.91888 16.2801 7.83161 16.2427C7.70198 16.1874 7.58455 16.0885 7.50447 15.9672C7.42472 15.8442 7.38096 15.7112 7.37982 15.5475V13.7789C7.37982 12.5327 6.38939 11.5221 5.16728 11.5221C3.94555 11.5221 2.95508 12.5328 2.95508 13.7789V15.5475C2.9547 16.2683 3.09945 16.9669 3.36164 17.598C3.75522 18.5464 4.4074 19.346 5.2298 19.9135C6.05143 20.4812 7.05698 20.8149 8.11854 20.8143H8.7678V27.1416H15.7951V19.3099H16.8656C17.5623 19.3103 18.2371 19.1645 18.8472 18.9011C19.7637 18.5051 20.5362 17.8501 21.0846 17.0227C21.633 16.1966 21.9561 15.1856 21.9551 14.1182V10.6818C21.955 9.43521 20.9646 8.42495 19.7428 8.42495Z" fill="#1DD1A1"/>
</svg>
