<svg width="32" height="25" viewBox="0 0 32 25" fill="none" xmlns="http://www.w3.org/2000/svg">
<path d="M14.6263 4.51107C14.4658 4.53447 14.2811 4.56141 13.9861 4.59094C13.8434 4.51609 13.6556 4.39758 13.4312 4.25599C12.3646 3.58295 10.4713 2.38836 8.67804 2.88204C7.17766 3.09055 5.98605 4.36835 5.56873 5.54302C5.25092 6.43758 5.25611 7.18458 5.26065 7.83926C5.26208 8.04425 5.26344 8.24018 5.2548 8.42877C5.21858 9.21963 5.2548 10.8557 5.73173 11.8699C5.6291 11.9786 5.34436 13.1921 5.34436 13.693C0.691337 14.9364 1.60783 18.9277 3.98256 19.7129C3.64082 21.5005 6.11187 24.0504 8.61796 22.1664C10.1952 23.3494 13.6785 24.2781 16.2266 24.2781C16.2631 24.2781 16.3062 24.2784 16.3556 24.2788C17.3568 24.2859 20.956 24.3115 24.5473 22.184C25.4067 22.9809 27.4496 23.184 28.5942 21.6801C29.3687 20.6624 29.1957 19.6997 29.1957 19.6997C29.6879 19.5004 30.145 19.2426 30.593 18.5998C31.1916 17.7412 31.1097 16.8419 30.9877 16.2848C30.7439 15.42 30.1868 14.6946 29.2524 14.2767C29.1277 14.231 28.9094 14.1379 28.6754 14.038C28.3478 13.8982 27.9894 13.7452 27.8131 13.6906C27.7667 12.8084 27.7319 12.6285 27.4069 11.8625C27.8422 11.1776 27.906 9.60488 27.8596 8.44417C27.8596 8.44417 27.9524 6.42453 27.581 5.65266C26.7337 3.27901 24.6386 2.79104 23.4153 2.79104C22.0248 2.79104 20.3598 3.84936 19.5619 4.35652C19.35 4.49121 19.1992 4.58703 19.131 4.61382C18.7889 4.5791 18.631 4.54518 18.493 4.51553C18.2249 4.45791 18.0317 4.41638 16.7071 4.41638C15.2755 4.41638 15.0261 4.45277 14.6263 4.51107Z" fill="black"/>
<path d="M11.9861 2.59094C13.0162 2.48783 12.7009 2.41638 14.7071 2.41638C16.7134 2.41638 16.1241 2.51164 17.131 2.61382C17.456 2.48614 19.6556 0.791043 21.4153 0.791043C22.6386 0.791043 24.7337 1.27901 25.581 3.65266C25.9524 4.42453 25.8596 6.44417 25.8596 6.44417C25.906 7.60488 25.8422 9.17764 25.4069 9.86246C25.7319 10.6285 25.7667 10.8084 25.8131 11.6906C26.1154 11.7843 26.9532 12.167 27.2524 12.2767C28.1868 12.6946 28.7439 13.42 28.9877 14.2848C29.1097 14.8419 29.1916 15.7412 28.593 16.5998C28.145 17.2426 27.6879 17.5004 27.1957 17.6997C27.1957 17.6997 27.3687 18.6624 26.5942 19.6801C25.4496 21.184 23.4067 20.9809 22.5473 20.184C18.7788 22.4165 15.0015 22.2781 14.2266 22.2781C11.6785 22.2781 8.19523 21.3494 6.61796 20.1664C4.11187 22.0504 1.64082 19.5005 1.98256 17.7129C-0.392173 16.9277 -1.30866 12.9364 3.34436 11.693C3.34436 11.1921 3.6291 9.97861 3.73173 9.86994C3.2548 8.8557 3.21858 7.21963 3.2548 6.42877C3.29102 5.6379 3.15141 4.71768 3.56873 3.54302C3.98605 2.36835 5.17766 1.09055 6.67804 0.882042C8.84862 0.284494 11.1656 2.16032 11.9861 2.59094Z" fill="black"/>
<path fill-rule="evenodd" clip-rule="evenodd" d="M14.5495 4.41419C12.8283 4.41419 12.6567 4.59635 11.7659 4.59635C11.0236 4.59635 8.7966 2.77344 7.68314 2.77344C6.56967 2.77344 5.27064 3.42969 5.27064 5.32552V7.51302C5.27288 8.08724 5.48083 9.8474 6.29469 9.377C5.33248 10.518 5.23528 11.8485 5.2485 13.1365C4.98934 13.2116 4.72493 13.2963 4.46832 13.3843C3.67312 13.6572 2.82978 14.0051 2.4488 14.2519C2.04421 14.5141 1.92805 15.0558 2.18934 15.4616C2.45064 15.8676 2.99045 15.9842 3.39503 15.722C3.57668 15.6043 4.23367 15.3143 5.0326 15.0402C5.12087 15.0099 5.20932 14.9804 5.29731 14.9518C5.35111 15.4579 5.48463 15.9199 5.68311 16.3408L5.6557 16.3553C5.17929 16.6079 4.73723 16.8979 4.45537 17.0828C4.40659 17.1148 4.36261 17.1436 4.32409 17.1686C3.9195 17.4307 3.80334 17.9724 4.06463 18.3783C4.32593 18.7843 4.86574 18.9009 5.27033 18.6387C5.31815 18.6077 5.3691 18.5743 5.42288 18.5391C5.70814 18.3523 6.07288 18.1134 6.47055 17.9025C6.56379 17.8531 6.65352 17.8083 6.73935 17.7679C8.75128 19.6607 12.3633 20.2734 14.5495 20.2734C16.7356 20.2734 20.3478 19.6607 22.3597 17.7679C22.4455 17.8083 22.5351 17.8531 22.6284 17.9025C23.0261 18.1134 23.3908 18.3523 23.6761 18.5391C23.7299 18.5743 23.7808 18.6077 23.8286 18.6387C24.2332 18.9009 24.773 18.7843 25.0344 18.3783C25.2957 17.9724 25.1795 17.4307 24.7749 17.1686C24.7364 17.1436 24.6924 17.1148 24.6436 17.0828C24.3617 16.8979 23.9196 16.6079 23.4433 16.3553L23.4159 16.3408C23.6144 15.9198 23.7479 15.4579 23.8017 14.9517C23.8899 14.9803 23.9785 15.0098 24.0669 15.0402C24.8658 15.3143 25.5229 15.6043 25.7045 15.722C26.109 15.9842 26.6489 15.8676 26.9102 15.4616C27.1714 15.0558 27.0553 14.5141 26.6507 14.2519C26.2697 14.0051 25.4264 13.6572 24.6311 13.3843C24.3744 13.2962 24.1099 13.2116 23.8506 13.1364C23.8637 11.8484 23.7665 10.518 22.8043 9.377C23.6183 9.8474 23.8262 8.08724 23.8285 7.51302V5.32565C23.8285 3.42982 22.5293 2.77357 21.4159 2.77357C20.3024 2.77357 18.0755 4.59635 17.3332 4.59635C16.4424 4.59635 16.2709 4.41419 14.5495 4.41419Z" fill="#56FFF5"/>
<path d="M11.0498 10.5234C10.5799 10.5234 10.2667 10.8409 10.108 11.1074C9.94257 11.3853 9.86377 11.7221 9.86377 12.0547C9.86377 12.3873 9.94257 12.7241 10.108 13.002C10.2667 13.2685 10.5799 13.5859 11.0498 13.5859C11.5197 13.5859 11.8329 13.2685 11.9916 13.002C12.157 12.7241 12.2358 12.3873 12.2358 12.0547C12.2358 11.7221 12.157 11.3853 11.9916 11.1074C11.8329 10.8409 11.5197 10.5234 11.0498 10.5234Z" fill="black"/>
<path d="M18.0498 10.5234C17.5799 10.5234 17.2667 10.8409 17.108 11.1074C16.9426 11.3853 16.8638 11.7221 16.8638 12.0547C16.8638 12.3873 16.9426 12.7241 17.108 13.002C17.2667 13.2685 17.5799 13.5859 18.0498 13.5859C18.5197 13.5859 18.8329 13.2685 18.9916 13.002C19.157 12.7241 19.2358 12.3873 19.2358 12.0547C19.2358 11.7221 19.157 11.3853 18.9916 11.1074C18.8329 10.8409 18.5197 10.5234 18.0498 10.5234Z" fill="black"/>
<path d="M15.8638 15.5234C15.8638 15.1273 15.5528 14.8631 15.2918 14.7294C15.0195 14.5899 14.6896 14.5234 14.3638 14.5234C14.0379 14.5234 13.708 14.5899 13.4358 14.7294C13.1747 14.8631 12.8638 15.1273 12.8638 15.5234C12.8638 15.9196 13.1747 16.1837 13.4358 16.3175C13.708 16.457 14.0379 16.5234 14.3638 16.5234C14.6896 16.5234 15.0195 16.457 15.2918 16.3175C15.5528 16.1837 15.8638 15.9196 15.8638 15.5234Z" fill="black"/>
</svg>
