<svg width="32" height="25" viewBox="0 0 32 25" fill="none" xmlns="http://www.w3.org/2000/svg">
<path d="M15.1809 4.51107C15.0205 4.53447 14.8358 4.56141 14.5407 4.59094C14.3981 4.51609 14.2103 4.39758 13.9859 4.25599C12.9193 3.58295 11.026 2.38836 9.23273 2.88204C7.73234 3.09055 6.54074 4.36835 6.12342 5.54302C5.80561 6.43758 5.8108 7.18458 5.81534 7.83926C5.81676 8.04425 5.81812 8.24018 5.80949 8.42877C5.77326 9.21963 5.80949 10.8557 6.28642 11.8699C6.18379 11.9786 5.89905 13.1921 5.89905 13.693C1.24602 14.9364 2.16251 18.9277 4.53725 19.7129C4.19551 21.5005 6.66656 24.0504 9.17265 22.1664C10.7499 23.3494 14.2332 24.2781 16.7813 24.2781C16.8178 24.2781 16.8609 24.2784 16.9103 24.2788C17.9115 24.2859 21.5107 24.3115 25.102 22.184C25.9614 22.9809 28.0043 23.184 29.1489 21.6801C29.9234 20.6624 29.7504 19.6997 29.7504 19.6997C30.2426 19.5004 30.6996 19.2426 31.1477 18.5998C31.7463 17.7412 31.6644 16.8419 31.5424 16.2848C31.2986 15.42 30.7415 14.6946 29.8071 14.2767C29.6824 14.231 29.4641 14.1379 29.2301 14.038C28.9025 13.8982 28.5441 13.7452 28.3678 13.6906C28.3214 12.8084 28.2866 12.6285 27.9616 11.8625C28.3968 11.1776 28.4607 9.60488 28.4143 8.44417C28.4143 8.44417 28.5071 6.42453 28.1357 5.65266C27.2884 3.27901 25.1933 2.79104 23.97 2.79104C22.5795 2.79104 20.9145 3.84936 20.1166 4.35652C19.9047 4.49121 19.7539 4.58703 19.6857 4.61382C19.3436 4.5791 19.1857 4.54518 19.0477 4.51553C18.7796 4.45791 18.5864 4.41638 17.2618 4.41638C15.8302 4.41638 15.5807 4.45277 15.1809 4.51107Z" fill="black"/>
<path d="M12.5407 2.59094C13.5709 2.48783 13.2556 2.41638 15.2618 2.41638C17.2681 2.41638 16.6788 2.51164 17.6857 2.61382C18.0107 2.48614 20.2102 0.791043 21.97 0.791043C23.1933 0.791043 25.2884 1.27901 26.1357 3.65266C26.5071 4.42453 26.4143 6.44417 26.4143 6.44417C26.4607 7.60488 26.3968 9.17764 25.9616 9.86246C26.2866 10.6285 26.3214 10.8084 26.3678 11.6906C26.67 11.7843 27.5079 12.167 27.8071 12.2767C28.7415 12.6946 29.2986 13.42 29.5424 14.2848C29.6644 14.8419 29.7463 15.7412 29.1477 16.5998C28.6996 17.2426 28.2426 17.5004 27.7504 17.6997C27.7504 17.6997 27.9234 18.6624 27.1489 19.6801C26.0043 21.184 23.9614 20.9809 23.102 20.184C19.3334 22.4165 15.5561 22.2781 14.7813 22.2781C12.2332 22.2781 8.74991 21.3494 7.17265 20.1664C4.66656 22.0504 2.19551 19.5005 2.53725 17.7129C0.162515 16.9277 -0.753976 12.9364 3.89905 11.693C3.89905 11.1921 4.18379 9.97861 4.28642 9.86994C3.80949 8.8557 3.77326 7.21963 3.80949 6.42877C3.84571 5.6379 3.7061 4.71768 4.12342 3.54302C4.54074 2.36835 5.73234 1.09055 7.23273 0.882042C9.40331 0.284494 11.7203 2.16032 12.5407 2.59094Z" fill="black"/>
<path fill-rule="evenodd" clip-rule="evenodd" d="M15.1042 4.41419C13.383 4.41419 13.2114 4.59635 12.3206 4.59635C11.5783 4.59635 9.35129 2.77344 8.23783 2.77344C7.12436 2.77344 5.82532 3.42969 5.82532 5.32552V7.51302C5.82757 8.08724 6.03552 9.8474 6.84938 9.377C5.88717 10.518 5.78996 11.8485 5.80318 13.1365C5.54403 13.2116 5.27962 13.2963 5.02301 13.3843C4.22781 13.6572 3.38447 14.0051 3.00349 14.2519C2.5989 14.5141 2.48273 15.0558 2.74403 15.4616C3.00533 15.8676 3.54514 15.9842 3.94972 15.722C4.13137 15.6043 4.78836 15.3143 5.58728 15.0402C5.67556 15.0099 5.76401 14.9804 5.852 14.9518C5.9058 15.4579 6.03932 15.9199 6.2378 16.3408L6.21038 16.3553C5.73398 16.6079 5.29192 16.8979 5.01005 17.0828C4.96128 17.1148 4.9173 17.1436 4.87878 17.1686C4.47418 17.4307 4.35802 17.9724 4.61932 18.3783C4.88062 18.7843 5.42043 18.9009 5.82502 18.6387C5.87283 18.6077 5.92379 18.5743 5.97756 18.5391C6.26282 18.3523 6.62757 18.1134 7.02524 17.9025C7.11848 17.8531 7.20821 17.8083 7.29404 17.7679C9.30597 19.6607 12.918 20.2734 15.1042 20.2734C17.2903 20.2734 20.9025 19.6607 22.9144 17.7679C23.0002 17.8083 23.0898 17.8531 23.1831 17.9025C23.5808 18.1134 23.9455 18.3523 24.2307 18.5391C24.2846 18.5743 24.3355 18.6077 24.3833 18.6387C24.7879 18.9009 25.3277 18.7843 25.5891 18.3783C25.8503 17.9724 25.7342 17.4307 25.3295 17.1686C25.2911 17.1436 25.2471 17.1148 25.1983 17.0828C24.9164 16.8979 24.4743 16.6079 23.998 16.3553L23.9706 16.3408C24.1691 15.9198 24.3026 15.4579 24.3564 14.9517C24.4446 14.9803 24.5332 15.0098 24.6215 15.0402C25.4205 15.3143 26.0776 15.6043 26.2592 15.722C26.6637 15.9842 27.2036 15.8676 27.4648 15.4616C27.7261 15.0558 27.61 14.5141 27.2054 14.2519C26.8244 14.0051 25.981 13.6572 25.1858 13.3843C24.9291 13.2962 24.6646 13.2116 24.4053 13.1364C24.4184 11.8484 24.3212 10.518 23.359 9.377C24.1729 9.8474 24.3809 8.08724 24.3832 7.51302V5.32565C24.3832 3.42982 23.084 2.77357 21.9706 2.77357C20.8571 2.77357 18.6302 4.59635 17.8879 4.59635C16.9971 4.59635 16.8256 4.41419 15.1042 4.41419Z" fill="#53E9E0"/>
<path d="M11.6045 10.5234C11.1346 10.5234 10.8213 10.8409 10.6627 11.1074C10.4973 11.3853 10.4185 11.7221 10.4185 12.0547C10.4185 12.3873 10.4973 12.7241 10.6627 13.002C10.8213 13.2685 11.1346 13.5859 11.6045 13.5859C12.0744 13.5859 12.3876 13.2685 12.5463 13.002C12.7117 12.7241 12.7905 12.3873 12.7905 12.0547C12.7905 11.7221 12.7117 11.3853 12.5463 11.1074C12.3876 10.8409 12.0744 10.5234 11.6045 10.5234Z" fill="black"/>
<path d="M18.6045 10.5234C18.1346 10.5234 17.8213 10.8409 17.6627 11.1074C17.4973 11.3853 17.4185 11.7221 17.4185 12.0547C17.4185 12.3873 17.4973 12.7241 17.6627 13.002C17.8213 13.2685 18.1346 13.5859 18.6045 13.5859C19.0744 13.5859 19.3876 13.2685 19.5463 13.002C19.7117 12.7241 19.7905 12.3873 19.7905 12.0547C19.7905 11.7221 19.7117 11.3853 19.5463 11.1074C19.3876 10.8409 19.0744 10.5234 18.6045 10.5234Z" fill="black"/>
<path d="M16.4185 15.5234C16.4185 15.1273 16.1075 14.8631 15.8465 14.7294C15.5742 14.5899 15.2443 14.5234 14.9185 14.5234C14.5926 14.5234 14.2627 14.5899 13.9905 14.7294C13.7294 14.8631 13.4185 15.1273 13.4185 15.5234C13.4185 15.9196 13.7294 16.1837 13.9905 16.3175C14.2627 16.457 14.5926 16.5234 14.9185 16.5234C15.2443 16.5234 15.5742 16.457 15.8465 16.3175C16.1075 16.1837 16.4185 15.9196 16.4185 15.5234Z" fill="black"/>
</svg>
