<svg width="31" height="32" viewBox="0 0 31 32" fill="none" xmlns="http://www.w3.org/2000/svg">
<path d="M8.44872 13.8375C8.47839 13.8433 8.50576 13.8486 8.53066 13.8534C8.57955 13.8854 8.63968 13.9305 8.69745 13.988C8.80428 14.0943 8.88702 14.2218 8.90493 14.4003C8.87081 14.4383 8.80708 14.504 8.69424 14.6014C8.62578 14.6604 8.53199 14.7366 8.42232 14.8257C8.14899 15.0477 7.77708 15.3499 7.4531 15.6669C6.42511 16.6731 5.42581 18.1975 5.42581 20.806C5.42581 23.4721 6.80576 25.7941 8.84041 27.4206C10.873 29.0454 13.6063 30.0225 16.4722 30.0225C19.3017 30.0225 22.6218 29.1325 25.2602 27.3303C27.9198 25.5137 29.9521 22.7136 29.9521 18.9413C29.9521 16.1684 29.9092 14.3993 29.6727 13.4034C29.5613 12.934 29.3329 12.2865 28.7044 11.9811C28.0756 11.6755 27.4498 11.9117 27.121 12.0576C26.772 12.2125 26.4037 12.4257 25.996 12.6618C24.6477 13.4423 22.8672 14.4731 19.9205 14.4731C18.9283 14.4731 18.3874 14.3274 18.1244 14.2084C19.196 12.5996 19.8583 10.0252 19.4402 7.75342C19.2132 6.52041 18.6556 5.31458 17.6054 4.41996C16.5504 3.52127 15.0991 3.02246 13.2487 3.02246H13.2374L13.2262 3.02271C10.7096 3.07926 9.08237 4.23575 8.11193 5.5426C7.40431 6.49552 7.03947 7.53569 6.90853 8.28371C6.65085 8.33233 6.3173 8.37237 5.91894 8.4202L5.89038 8.42363C5.43947 8.47777 4.90149 8.54298 4.46264 8.65199C4.24534 8.70598 3.98861 8.78536 3.75776 8.91463C3.54464 9.03396 3.17763 9.29545 3.05853 9.78695C2.80977 10.8135 3.37465 11.5961 3.94085 12.072C4.50383 12.5451 5.2514 12.8907 5.92177 13.1398C6.60979 13.3955 7.30342 13.5806 7.81762 13.7011C8.07659 13.7618 8.29436 13.8071 8.44872 13.8375Z" fill="black" stroke="black" stroke-width="2"/>
<path d="M6.44872 11.8375C6.47839 11.8433 6.50576 11.8486 6.53066 11.8534C6.57955 11.8854 6.63968 11.9305 6.69745 11.988C6.80428 12.0943 6.88702 12.2218 6.90493 12.4003C6.87081 12.4383 6.80708 12.504 6.69424 12.6014C6.62578 12.6604 6.53199 12.7366 6.42232 12.8257C6.14899 13.0477 5.77708 13.3499 5.4531 13.6669C4.42511 14.6731 3.42581 16.1975 3.42581 18.806C3.42581 21.4721 4.80576 23.7941 6.84041 25.4206C8.87303 27.0454 11.6063 28.0225 14.4722 28.0225C17.3017 28.0225 20.6218 27.1325 23.2602 25.3303C25.9198 23.5137 27.9521 20.7136 27.9521 16.9413C27.9521 14.1684 27.9092 12.3993 27.6727 11.4034C27.5613 10.934 27.3329 10.2865 26.7044 9.98105C26.0756 9.67547 25.4498 9.91175 25.121 10.0576C24.772 10.2125 24.4037 10.4257 23.996 10.6618C22.6477 11.4423 20.8672 12.4731 17.9205 12.4731C16.9283 12.4731 16.3874 12.3274 16.1244 12.2084C17.196 10.5996 17.8583 8.02519 17.4402 5.75342C17.2132 4.52041 16.6556 3.31458 15.6054 2.41996C14.5504 1.52127 13.0991 1.02246 11.2487 1.02246H11.2374L11.2262 1.02271C8.70963 1.07926 7.08237 2.23575 6.11193 3.5426C5.40431 4.49552 5.03947 5.53569 4.90853 6.28371C4.65085 6.33233 4.3173 6.37237 3.91894 6.4202L3.89038 6.42363C3.43947 6.47777 2.90149 6.54298 2.46264 6.65199C2.24534 6.70598 1.98861 6.78536 1.75776 6.91463C1.54464 7.03396 1.17763 7.29545 1.05853 7.78695C0.809767 8.81352 1.37465 9.59611 1.94085 10.072C2.50383 10.5451 3.2514 10.8907 3.92177 11.1398C4.60979 11.3955 5.30342 11.5806 5.81762 11.7011C6.07659 11.7618 6.29436 11.8071 6.44872 11.8375Z" fill="#FECA57" stroke="black" stroke-width="2"/>
<path d="M10.0911 6.66858C10.0911 6.04494 9.62273 6.02246 9.04558 6.02246C8.46894 6.02246 8 6.04494 8 6.66858C8 7.29279 8.46894 7.7994 9.04558 7.7994C9.62273 7.7994 10.0911 7.29279 10.0911 6.66858Z" fill="black"/>
</svg>
