<svg width="32" height="29" viewBox="0 0 32 29" fill="none" xmlns="http://www.w3.org/2000/svg">
<path d="M11.8418 25.8764C7.34352 22.7332 2.48828 18.3572 2.48828 12.2839C2.48906 4.72996 10.3983 -0.124537 17.0009 4.93447C24.417 -0.595554 31.4727 5.47023 31.4727 12.1892C31.4727 18.6854 26.9005 22.1733 23.099 25.0732C22.6564 25.4108 22.2244 25.7404 21.8111 26.0658C19.2728 28.0651 18.112 28.3391 16.862 28.3391C15.0633 28.3391 13.1396 26.8986 11.8418 25.8764Z" fill="black"/>
<path d="M0.488281 10.2839C0.488281 16.3572 5.34352 20.7332 9.84176 23.8764C11.1396 24.8986 13.0633 26.3391 14.862 26.3391C16.112 26.3391 17.2728 26.0651 19.8111 24.0658C23.774 20.9445 29.4727 17.4416 29.4727 10.1892C29.4727 3.47023 22.417 -2.59555 15.0009 2.93447C8.39828 -2.12454 0.489065 2.72996 0.488281 10.2839Z" fill="black"/>
<path d="M2.48047 10.1164C2.48047 16.1897 7.50476 19.4261 11.1826 22.323C12.4805 23.3452 13.7305 24.3076 14.9805 24.3076C16.2305 24.3076 17.4805 23.3452 18.7783 22.323C22.4562 19.4261 27.4805 16.1897 27.4805 10.1164C27.4805 4.0431 20.6052 -0.263997 14.9805 5.57484C9.35567 -0.263997 2.48047 4.0431 2.48047 10.1164Z" fill="#EE5253"/>
</svg>
