<svg width="32" height="29" viewBox="0 0 32 29" fill="none" xmlns="http://www.w3.org/2000/svg">
<path d="M21.8688 25.0734L21.2684 24.3112L21.8688 25.0734C22.1972 24.8147 22.5429 24.5488 22.8996 24.2744C24.4755 23.0621 26.2657 21.685 27.7277 20.0401C29.555 17.9843 30.9521 15.4303 30.9521 12.0813C30.9521 8.66999 29.02 5.70941 26.2269 4.43379C23.5918 3.23034 20.3482 3.58954 17.4521 6.15429C14.556 3.58954 11.3125 3.23033 8.67742 4.43379C5.8843 5.70941 3.95215 8.66999 3.95215 12.0813C3.95215 15.4303 5.34932 17.9843 7.1766 20.0401C8.63866 21.685 10.4288 23.0621 12.0047 24.2744C12.3614 24.5488 12.7071 24.8147 13.0356 25.0734C13.6753 25.5773 14.366 26.1178 15.067 26.5271C15.7677 26.9361 16.5735 27.2725 17.4521 27.2725C18.3308 27.2725 19.1366 26.9361 19.8373 26.5271C20.5383 26.1178 21.229 25.5773 21.8688 25.0734Z" fill="black" stroke="black" stroke-width="2"/>
<path d="M19.8688 23.0734L19.2684 22.3112L19.8688 23.0734C20.1972 22.8147 20.5429 22.5488 20.8996 22.2744C22.4755 21.0621 24.2657 19.685 25.7277 18.0401C27.555 15.9843 28.9521 13.4303 28.9521 10.0813C28.9521 6.66999 27.02 3.70941 24.2269 2.43379C21.5918 1.23034 18.3482 1.58954 15.4521 4.15429C12.556 1.58954 9.31252 1.23033 6.67742 2.43379C3.8843 3.70941 1.95215 6.66999 1.95215 10.0813C1.95215 13.4303 3.34932 15.9843 5.1766 18.0401C6.63866 19.685 8.42879 21.0621 10.0047 22.2744C10.3614 22.5488 10.7071 22.8147 11.0356 23.0734C11.6753 23.5773 12.366 24.1178 13.067 24.5271C13.7677 24.9361 14.5735 25.2725 15.4521 25.2725C16.3308 25.2725 17.1366 24.9361 17.8373 24.5271C18.5383 24.1178 19.229 23.5773 19.8688 23.0734Z" fill="#EE5253" stroke="black" stroke-width="2"/>
</svg>
