<svg width="29" height="32" viewBox="0 0 29 32" fill="none" xmlns="http://www.w3.org/2000/svg">
<path d="M12.9385 4.97959C13.5727 3.4503 15.8956 1.83174 17.4526 2.01411C17.8407 2.01401 18.816 2.05721 19.1615 2.20846C19.555 2.30588 20.7554 2.88306 21.2694 3.14109L23.9648 4.48883L23.9848 4.49886C24.3924 4.70324 25.7165 5.36721 26.0134 5.66405C26.6727 6.17035 27.604 7.33671 27.76 8.15543C27.7804 8.26227 27.8138 8.37726 27.8493 8.49914C27.9194 8.74011 27.9973 9.00799 27.9972 9.29292L28.0399 9.88336C28.0399 10.0724 28.042 10.293 28.0441 10.5173C28.0485 10.9777 28.053 11.4539 28.0399 11.7059C27.947 13.4898 27.3725 14.812 26.7821 15.3254C25.7092 16.4933 24.0777 17.4073 22.5209 17.2249C22.4998 17.2225 22.4773 17.2198 22.4535 17.2171C22.0837 17.1743 21.4209 17.0975 21.0962 16.9554C21.0051 16.9155 20.8943 16.8687 20.7712 16.8167C20.4314 16.6734 19.9974 16.4902 19.6202 16.3008L18.6319 15.8131C18.5825 15.7883 18.5348 15.7648 18.4886 15.742C18.392 15.6943 18.3017 15.6498 18.2146 15.6032V23.0957C18.2146 28.2913 13.729 31.1636 10.3508 31.0408C5.68539 31.1139 2.40605 26.8165 2.54425 23.1233C2.54425 19.418 5.45363 15.3228 10.5723 15.3228C11.4707 15.3228 11.6124 15.3676 11.9882 15.4865C12.0925 15.5195 12.2148 15.5582 12.3762 15.6032L12.3835 9.67485V8.46758C12.3838 8.33067 12.3821 8.16709 12.3804 7.99969C12.3772 7.67763 12.3738 7.34143 12.3835 7.1538C12.3835 6.32085 12.6804 5.6076 12.8513 5.19681C12.8872 5.11048 12.9176 5.03751 12.9385 4.97959Z" fill="black"/>
<path d="M15.4526 0.0140635C13.8956 -0.168307 11.5727 1.45026 10.9385 2.97955C10.8182 3.31308 10.3835 4.14577 10.3835 5.15376C10.3687 5.43891 10.3843 6.06721 10.3835 6.46754V7.07324V7.6748L10.3762 13.6031C9.63274 13.3959 9.71993 13.3228 8.57234 13.3228C3.45363 13.3228 0.544247 17.418 0.544247 21.1233C0.406051 24.8164 3.68539 29.1139 8.35077 29.0407C11.729 29.1636 16.2146 26.2912 16.2146 21.0956V13.6031C16.3434 13.672 16.4791 13.7364 16.6319 13.813L17.6202 14.3008C18.1341 14.5587 18.7536 14.8053 19.0962 14.9553C19.4417 15.1066 20.17 15.1838 20.5209 15.2249C22.0777 15.4072 23.7092 14.4933 24.7821 13.3253C25.3725 12.8119 25.947 11.4898 26.0399 9.70588C26.0594 9.33103 26.0399 8.46026 26.0399 7.88331L25.9972 7.29288C25.9974 6.86385 25.8206 6.47345 25.76 6.15539C25.604 5.33667 24.6727 4.17031 24.0134 3.66401C23.7115 3.36211 22.347 2.68048 21.9648 2.48878L19.2694 1.14105C18.7554 0.883014 17.555 0.305834 17.1615 0.208419C16.816 0.0571629 15.8407 0.0139705 15.4526 0.0140635Z" fill="black"/>
<path d="M16.143 2.04547C14.5861 1.8631 13.1087 2.77997 12.5749 4.25991C12.4546 4.59344 12.4124 4.95404 12.3926 5.33202C12.3777 5.61717 12.3741 5.95708 12.3733 6.3574L12.3729 6.91874C12.3729 6.92467 12.3729 6.93059 12.3729 6.93649V16.8884C11.329 15.9045 9.92467 15.302 8.38011 15.302C5.15716 15.302 2.54443 17.9256 2.54443 21.1622C2.54443 24.3988 5.15716 27.0225 8.38011 27.0225C11.6031 27.0225 14.2158 24.3988 14.2158 21.1622V10.3184C14.3445 10.3873 14.484 10.4573 14.6368 10.5339L17.9632 12.2041C18.4771 12.462 18.8953 12.672 19.2379 12.822C19.5834 12.9733 19.9235 13.0967 20.2743 13.1378C21.8312 13.3201 23.3085 12.4032 23.8423 10.9233C23.9627 10.5898 24.0049 10.2292 24.0248 9.8512C24.0443 9.47636 24.0443 9.00687 24.0443 8.42993L24.0444 8.32773C24.0445 7.8987 24.0447 7.56308 23.9841 7.24502C23.8281 6.4263 23.3773 5.69393 22.7179 5.18763C22.4617 4.99094 22.1628 4.84099 21.7805 4.64929L18.4542 2.97917C17.9403 2.72114 17.5221 2.51115 17.1795 2.36116C16.834 2.2099 16.4939 2.08656 16.143 2.04547Z" fill="#FF9F43"/>
</svg>
