<svg width="28" height="32" viewBox="0 0 28 32" fill="none" xmlns="http://www.w3.org/2000/svg">
<path d="M12.4727 4.97959C13.1069 3.4503 15.4298 1.83174 16.9868 2.01411C17.3749 2.01401 18.3502 2.05721 18.6957 2.20846C19.0892 2.30588 20.2896 2.88306 20.8035 3.14109L23.499 4.48883L23.519 4.49886C23.9266 4.70324 25.2507 5.36721 25.5476 5.66405C26.2069 6.17035 27.1382 7.33671 27.2942 8.15543C27.3146 8.26227 27.348 8.37726 27.3835 8.49914C27.4536 8.74011 27.5315 9.00799 27.5314 9.29292L27.5741 9.88336C27.5741 10.0724 27.5762 10.293 27.5783 10.5173C27.5827 10.9777 27.5872 11.4539 27.5741 11.7059C27.4811 13.4898 26.9067 14.812 26.3163 15.3254C25.2434 16.4933 23.6119 17.4073 22.0551 17.2249C22.0339 17.2225 22.0114 17.2198 21.9877 17.2171C21.6178 17.1743 20.9551 17.0975 20.6304 16.9554C20.5393 16.9155 20.4285 16.8687 20.3053 16.8167C19.9656 16.6734 19.5316 16.4902 19.1544 16.3008L18.1661 15.8131C18.1167 15.7883 18.069 15.7648 18.0228 15.742C17.9262 15.6943 17.8359 15.6498 17.7488 15.6032V23.0957C17.7488 28.2913 13.2632 31.1636 9.88495 31.0408C5.21957 31.1139 1.94023 26.8165 2.07843 23.1233C2.07843 19.418 4.98781 15.3228 10.1065 15.3228C11.0049 15.3228 11.1465 15.3676 11.5224 15.4865C11.6266 15.5195 11.7489 15.5582 11.9104 15.6032L11.9177 9.67485V8.46758C11.918 8.33067 11.9163 8.16709 11.9146 7.99969C11.9113 7.67763 11.9079 7.34143 11.9177 7.1538C11.9177 6.32085 12.2145 5.6076 12.3855 5.19681C12.4214 5.11048 12.4518 5.03751 12.4727 4.97959Z" fill="black"/>
<path d="M14.9868 0.0140635C13.4298 -0.168307 11.1069 1.45026 10.4727 2.97955C10.3524 3.31308 9.91772 4.14577 9.91772 5.15376C9.90285 5.43891 9.91846 6.06721 9.91772 6.46754V7.07324V7.6748L9.91042 13.6031C9.16692 13.3959 9.25411 13.3228 8.10652 13.3228C2.98781 13.3228 0.0784269 17.418 0.0784269 21.1233C-0.0597696 24.8164 3.21957 29.1139 7.88495 29.0407C11.2632 29.1636 15.7488 26.2912 15.7488 21.0956V13.6031C15.8775 13.672 16.0133 13.7364 16.1661 13.813L17.1544 14.3008C17.6683 14.5587 18.2878 14.8053 18.6304 14.9553C18.9759 15.1066 19.7042 15.1838 20.0551 15.2249C21.6119 15.4072 23.2434 14.4933 24.3163 13.3253C24.9067 12.8119 25.4811 11.4898 25.5741 9.70588C25.5936 9.33103 25.5741 8.46026 25.5741 7.88331L25.5314 7.29288C25.5315 6.86385 25.3548 6.47345 25.2942 6.15539C25.1382 5.33667 24.2069 4.17031 23.5476 3.66401C23.2457 3.36211 21.8812 2.68048 21.499 2.48878L18.8035 1.14105C18.2896 0.883014 17.0892 0.305834 16.6957 0.208419C16.3502 0.0571629 15.3749 0.0139705 14.9868 0.0140635Z" fill="black"/>
<path d="M15.6772 2.04547C14.1203 1.8631 12.6429 2.77997 12.1091 4.25991C11.9888 4.59344 11.9466 4.95404 11.9268 5.33202C11.9119 5.61717 11.9082 5.95708 11.9075 6.3574L11.9071 6.91874C11.9071 6.92467 11.9071 6.93059 11.9071 6.93649V16.8884C10.8632 15.9045 9.45885 15.302 7.91429 15.302C4.69134 15.302 2.07861 17.9256 2.07861 21.1622C2.07861 24.3988 4.69134 27.0225 7.91429 27.0225C11.1373 27.0225 13.75 24.3988 13.75 21.1622V10.3184C13.8787 10.3873 14.0182 10.4573 14.171 10.5339L17.4973 12.2041C18.0112 12.462 18.4294 12.672 18.7721 12.822C19.1176 12.9733 19.4576 13.0967 19.8085 13.1378C21.3653 13.3201 22.8427 12.4032 23.3765 10.9233C23.4969 10.5898 23.539 10.2292 23.5589 9.8512C23.5785 9.47635 23.5785 9.00687 23.5785 8.42993L23.5786 8.32774C23.5787 7.8987 23.5788 7.56308 23.5183 7.24502C23.3623 6.4263 22.9115 5.69393 22.2521 5.18763C21.9958 4.99094 21.6969 4.84099 21.3147 4.64929L17.9884 2.97917C17.4745 2.72114 17.0563 2.51115 16.7136 2.36116C16.3682 2.2099 16.0281 2.08656 15.6772 2.04547Z" fill="#FF9F43"/>
</svg>
