<svg width="30" height="32" viewBox="0 0 30 32" fill="none" xmlns="http://www.w3.org/2000/svg">
<path d="M10.8201 28.4331C10.8559 28.5652 10.9153 28.6909 11.0137 28.9159C11.12 29.4826 12.1566 30.1818 12.4306 30.2738C14.7065 31.0366 17.7977 31.3367 20.094 30.6398L21.2984 30.2738C21.6172 30.1793 22.3493 29.707 22.5854 29.2583C23.1301 28.4557 23.1103 27.5946 23.0829 26.404C23.0764 26.1233 23.0696 25.8243 23.0696 25.5034C23.0696 25.177 23.0728 24.8735 23.0758 24.5912C23.0869 23.5537 23.0949 22.8013 22.9279 22.2444C25.2894 21.8902 29.6229 19.2439 29.6229 12.9988C29.6229 11.2087 29.1428 9.03697 28.0761 7.8978C28.2433 7.49096 28.513 4.81594 27.1905 2.44206C27.1905 2.44206 24.5455 0.931052 20.767 3.57173C19.4284 3.20558 18.399 3.17415 16.9767 3.17415C15.5544 3.17415 14.4423 3.20558 13.1037 3.57173C8.9119 0.98969 6.65659 2.42038 6.65659 2.42038C5.54665 4.82726 5.45218 6.8346 5.7828 7.89731C4.71611 9.03647 4.27737 10.8123 4.27737 12.5821C4.27737 13.8306 4.38753 16.2357 5.35298 17.9432C3.95164 17.9636 2.84529 18.5399 2.58981 20.0638C2.47047 21.6336 3.84852 22.4569 4.41608 22.7639C4.61069 22.9366 4.78303 23.2798 4.99657 23.7051C5.70295 25.1117 6.86018 27.4163 10.7657 27.4163C10.7657 28.0171 10.7657 28.2325 10.8201 28.4331Z" fill="black"/>
<path d="M9.0137 26.9159C8.76574 26.3491 8.76574 26.4125 8.76574 25.4163C3.67953 25.4163 3.25444 21.5078 2.41608 20.7639C1.84852 20.4569 0.470466 19.6336 0.589806 18.0638C0.845286 16.5399 1.95164 15.9636 3.35298 15.9432C2.38753 14.2357 2.27737 11.8306 2.27737 10.5821C2.27737 8.81233 2.71611 7.03647 3.7828 5.89731C3.45218 4.8346 3.54665 2.82726 4.65659 0.420375C4.65659 0.420375 6.9119 -1.01031 11.1037 1.57173C12.4423 1.20558 13.5544 1.17415 14.9767 1.17415C16.399 1.17415 17.4284 1.20558 18.767 1.57173C22.5455 -1.06895 25.1905 0.442061 25.1905 0.442061C26.513 2.81594 26.2433 5.49096 26.0761 5.8978C27.1428 7.03697 27.6229 9.2087 27.6229 10.9988C27.6229 17.2439 23.2894 19.8902 20.9279 20.2444C21.1404 20.9529 21.0696 21.9777 21.0696 23.5034C21.0696 25.1854 21.2585 26.2664 20.5854 27.2583C20.3493 27.707 19.6172 28.1793 19.2984 28.2738L18.094 28.6398C15.7977 29.3367 12.7065 29.0366 10.4306 28.2738C10.1566 28.1818 9.11997 27.4826 9.0137 26.9159Z" fill="black"/>
<path d="M10.7316 23.2382C10.7316 24.2345 10.7427 25.1873 10.7487 25.7787C10.7517 26.0717 10.9376 26.3312 11.2116 26.4232C13.4875 27.186 15.9391 27.2215 18.2354 26.5246L18.5561 26.4272C18.8652 26.3334 19.0773 26.0455 19.0796 25.718C19.0853 24.9029 19.0978 23.476 19.0978 21.7939C19.0978 20.2682 18.5749 19.2918 17.9684 18.7833C21.6913 18.3764 25.6025 16.9932 25.6025 10.7481C25.6025 8.958 24.9542 7.51371 23.8875 6.37454C24.0547 5.9677 24.6404 4.29965 23.7202 2.06202C23.7202 2.06202 22.3188 1.61448 19.1187 3.73007C17.7801 3.36391 16.3579 3.18083 14.9356 3.18083C13.5133 3.18083 12.0911 3.36391 10.7525 3.73007C7.55239 1.63483 6.15104 2.06202 6.15104 2.06202C5.23076 4.29965 5.81639 5.9677 5.98372 6.37454C4.91703 7.51371 4.26864 8.97834 4.26864 10.7481C4.26864 16.9728 8.15894 18.3764 11.8819 18.7833C11.4009 19.1901 10.9616 19.9021 10.8152 20.9598C9.8531 21.3871 7.44781 22.0787 5.94189 19.6173C5.62816 19.129 4.68695 17.9289 3.36927 17.9492C1.96793 17.9696 2.80455 18.7222 3.39019 19.0274C4.10132 19.4139 4.91703 20.8582 5.10527 21.3261C5.43992 22.2415 6.52752 23.9909 10.7316 23.2382Z" fill="#FF9FF3"/>
</svg>
