<svg width="30" height="32" viewBox="0 0 30 32" fill="none" xmlns="http://www.w3.org/2000/svg">
<path d="M11.1971 28.4331C11.2329 28.5652 11.2922 28.6909 11.3907 28.9159C11.4969 29.4826 12.5336 30.1818 12.8076 30.2738C15.0834 31.0366 18.1746 31.3367 20.4709 30.6398L21.6753 30.2738C21.9941 30.1793 22.7262 29.707 22.9624 29.2583C23.507 28.4557 23.4872 27.5946 23.4598 26.404C23.4534 26.1233 23.4465 25.8243 23.4465 25.5034C23.4465 25.177 23.4498 24.8735 23.4528 24.5912C23.4639 23.5537 23.4719 22.8013 23.3048 22.2444C25.6664 21.8902 29.9999 19.2439 29.9999 12.9988C29.9999 11.2087 29.5197 9.03697 28.4531 7.8978C28.6203 7.49096 28.8899 4.81594 27.5675 2.44206C27.5675 2.44206 24.9225 0.931052 21.144 3.57173C19.8054 3.20558 18.7759 3.17415 17.3536 3.17415C15.9314 3.17415 14.8193 3.20558 13.4806 3.57173C9.28885 0.98969 7.03354 2.42038 7.03354 2.42038C5.9236 4.82726 5.82914 6.8346 6.15976 7.89731C5.09306 9.03647 4.65432 10.8123 4.65432 12.5821C4.65432 13.8306 4.76448 16.2357 5.72994 17.9432C4.32859 17.9636 3.22224 18.5399 2.96676 20.0638C2.84742 21.6336 4.22547 22.4569 4.79303 22.7639C4.98764 22.9366 5.15998 23.2798 5.37352 23.7051C6.0799 25.1117 7.23713 27.4163 11.1427 27.4163C11.1427 28.0171 11.1427 28.2325 11.1971 28.4331Z" fill="black"/>
<path d="M9.39066 26.9159C9.14269 26.3491 9.14269 26.4125 9.14269 25.4163C4.05648 25.4163 3.63139 21.5078 2.79303 20.7639C2.22547 20.4569 0.847419 19.6336 0.966759 18.0638C1.22224 16.5399 2.32859 15.9636 3.72994 15.9432C2.76448 14.2357 2.65432 11.8306 2.65432 10.5821C2.65432 8.81233 3.09306 7.03647 4.15976 5.89731C3.82914 4.8346 3.9236 2.82726 5.03354 0.420375C5.03354 0.420375 7.28885 -1.01031 11.4806 1.57173C12.8193 1.20558 13.9314 1.17415 15.3536 1.17415C16.7759 1.17415 17.8054 1.20558 19.144 1.57173C22.9225 -1.06895 25.5675 0.442061 25.5675 0.442061C26.8899 2.81594 26.6203 5.49096 26.4531 5.8978C27.5197 7.03697 27.9999 9.2087 27.9999 10.9988C27.9999 17.2439 23.6664 19.8902 21.3048 20.2444C21.5174 20.9529 21.4465 21.9777 21.4465 23.5034C21.4465 25.1854 21.6354 26.2664 20.9624 27.2583C20.7262 27.707 19.9941 28.1793 19.6753 28.2738L18.4709 28.6398C16.1746 29.3367 13.0834 29.0366 10.8076 28.2738C10.5336 28.1818 9.49693 27.4826 9.39066 26.9159Z" fill="black"/>
<path d="M11.1085 23.2382C11.1085 24.2345 11.1197 25.1873 11.1257 25.7787C11.1287 26.0717 11.3145 26.3312 11.5886 26.4232C13.8644 27.186 16.3161 27.2215 18.6124 26.5246L18.9331 26.4272C19.2421 26.3334 19.4543 26.0455 19.4566 25.718C19.4623 24.9029 19.4748 23.476 19.4748 21.7939C19.4748 20.2682 18.9519 19.2918 18.3454 18.7833C22.0683 18.3764 25.9795 16.9932 25.9795 10.7481C25.9795 8.958 25.3311 7.51371 24.2645 6.37454C24.4317 5.9677 25.0173 4.29965 24.0971 2.06202C24.0971 2.06202 22.6958 1.61448 19.4957 3.73007C18.1571 3.36391 16.7348 3.18083 15.3125 3.18083C13.8903 3.18083 12.468 3.36391 11.1294 3.73007C7.92934 1.63483 6.528 2.06202 6.528 2.06202C5.60771 4.29965 6.19335 5.9677 6.36068 6.37454C5.29398 7.51371 4.64559 8.97834 4.64559 10.7481C4.64559 16.9728 8.5359 18.3764 12.2589 18.7833C11.7778 19.1901 11.3386 19.9021 11.1922 20.9598C10.2301 21.3871 7.82476 22.0787 6.31884 19.6173C6.00511 19.129 5.0639 17.9289 3.74622 17.9492C2.34488 17.9696 3.18151 18.7222 3.76714 19.0274C4.47827 19.4139 5.29398 20.8582 5.48222 21.3261C5.81687 22.2415 6.90447 23.9909 11.1085 23.2382Z" fill="#FF9FF3"/>
</svg>
