<svg width="22" height="31" viewBox="0 0 22 31" fill="none" xmlns="http://www.w3.org/2000/svg">
<path d="M20.2017 13.7583L16.9298 12.1308L17.9095 5.44591C17.8116 1.43734 13.4142 1.3772 12.1528 3.16558L3.38792 14.4344C1.83971 16.3519 2.77549 18.6135 4.5039 19.4162C4.5039 19.4162 5.93373 19.9577 8.57114 21.098L7.63573 27.5645C7.63573 31.1316 11.5844 32.0044 13.4191 29.8002L21.0765 18.3077C22.1698 16.7057 21.6766 14.7331 20.2017 13.7583Z" fill="black"/>
<path d="M14.9298 10.1307L18.2017 11.7582C19.6766 12.733 20.1698 14.7056 19.0765 16.3076L11.4191 27.8001C9.5844 30.0043 5.63573 29.1315 5.63573 25.5644L6.57114 19.0979C3.93373 17.9576 2.5039 17.4161 2.5039 17.4161C0.77549 16.6134 -0.160293 14.3518 1.38792 12.4343L10.1528 1.16549C11.4142 -0.622885 15.8116 -0.562742 15.9095 3.44582L14.9298 10.1307Z" fill="black"/>
<path d="M17.6057 14.1938C17.559 14.0241 17.477 13.8663 17.3651 13.7306C17.2533 13.5948 17.1141 13.4843 16.9566 13.4061L12.725 11.3057L13.8609 3.44173C13.8983 3.16919 13.8448 2.89192 13.7089 2.65288C13.5729 2.41385 13.3621 2.2264 13.109 2.11958C12.8558 2.01276 12.5746 1.99254 12.3089 2.06205C12.0431 2.13156 11.8077 2.28692 11.639 2.50405L2.9012 13.7562C2.7826 13.9079 2.70061 14.085 2.66163 14.2737C2.62265 14.4624 2.62775 14.6575 2.67651 14.8439C2.73161 15.0304 2.82738 15.2023 2.95691 15.3471C3.08644 15.492 3.24648 15.6062 3.42547 15.6816L8.75554 17.8195L7.61963 25.596C7.58101 25.8751 7.63767 26.1591 7.78041 26.4019C7.92316 26.6448 8.14361 26.8322 8.40603 26.9338C8.55231 26.9945 8.70956 27.0243 8.86789 27.0213C9.07348 27.0202 9.27564 26.9683 9.45638 26.8701C9.63713 26.772 9.79087 26.6306 9.90394 26.4587L17.3935 15.2065C17.499 15.0626 17.5725 14.8978 17.6091 14.7232C17.6457 14.5485 17.6446 14.368 17.6057 14.1938Z" fill="#9059FB"/>
</svg>
