<svg width="23" height="31" viewBox="0 0 23 31" fill="none" xmlns="http://www.w3.org/2000/svg">
<path d="M20.5577 13.7583L17.2857 12.1308L18.2654 5.44591C18.1675 1.43734 13.7701 1.3772 12.5088 3.16558L3.74388 14.4344C2.19566 16.3519 3.13145 18.6135 4.85986 19.4162C4.85986 19.4162 6.28969 19.9577 8.92709 21.098L7.99169 27.5645C7.99169 31.1316 11.9404 32.0044 13.7751 29.8002L21.4325 18.3077C22.5258 16.7057 22.0326 14.7331 20.5577 13.7583Z" fill="black"/>
<path d="M15.2857 10.1307L18.5577 11.7582C20.0326 12.733 20.5258 14.7056 19.4325 16.3076L11.7751 27.8001C9.94036 30.0043 5.99169 29.1315 5.99169 25.5644L6.92709 19.0979C4.28969 17.9576 2.85986 17.4161 2.85986 17.4161C1.13145 16.6134 0.195664 14.3518 1.74388 12.4343L10.5088 1.16549C11.7701 -0.622885 16.1675 -0.562742 16.2654 3.44582L15.2857 10.1307Z" fill="black"/>
<path d="M17.9617 14.1938C17.9149 14.0241 17.8329 13.8663 17.7211 13.7306C17.6092 13.5948 17.47 13.4843 17.3126 13.4061L13.081 11.3057L14.2169 3.44173C14.2542 3.16919 14.2008 2.89192 14.0648 2.65288C13.9289 2.41385 13.718 2.2264 13.4649 2.11958C13.2118 2.01276 12.9306 1.99254 12.6648 2.06205C12.3991 2.13156 12.1636 2.28692 11.995 2.50405L3.25715 13.7562C3.13855 13.9079 3.05656 14.085 3.01759 14.2737C2.97861 14.4624 2.9837 14.6575 3.03247 14.8439C3.08757 15.0304 3.18334 15.2023 3.31287 15.3471C3.44239 15.492 3.60243 15.6062 3.78142 15.6816L9.1115 17.8195L7.97558 25.596C7.93697 25.8751 7.99363 26.1591 8.13637 26.4019C8.27911 26.6448 8.49957 26.8322 8.76199 26.9338C8.90827 26.9945 9.06551 27.0243 9.22384 27.0213C9.42944 27.0202 9.63159 26.9683 9.81234 26.8701C9.99308 26.772 10.1468 26.6306 10.2599 26.4587L17.7495 15.2065C17.855 15.0626 17.9285 14.8978 17.9651 14.7232C18.0017 14.5485 18.0005 14.368 17.9617 14.1938Z" fill="#5F27CD"/>
</svg>
