<svg width="33" height="32" viewBox="0 0 33 32" fill="none" xmlns="http://www.w3.org/2000/svg">
<g filter="url(#filter0_d_209_1419)">
<path d="M23.8127 5.69069C23.8522 4.73398 23.5078 3.76599 22.7767 3.03505C21.3907 1.64935 19.1523 1.65782 17.7663 3.04352C16.6711 4.13851 16.4255 5.75277 17.0832 7.09611L7.59583 16.5841C6.25218 15.9266 4.63755 16.1721 3.54232 17.2671C2.15633 18.65 2.15069 20.8936 3.53667 22.2792C4.26777 23.0102 5.23316 23.3516 6.19008 23.3122C6.15056 24.2688 6.49494 25.2369 7.22604 25.965C8.61203 27.3506 10.8505 27.3422 12.2365 25.9565C13.3317 24.8615 13.5745 23.2473 12.9168 21.9039L22.4042 12.4187C23.7478 13.0762 25.3624 12.8307 26.4577 11.7357C27.8437 10.35 27.8493 8.10641 26.4633 6.72077C25.7322 5.99268 24.7696 5.65118 23.8127 5.69069Z" fill="#54A0FF"/>
<path d="M3.53186 22.284L2.82964 22.9864C1.0515 21.2087 1.06011 18.3316 2.83556 16.5596M3.53186 22.284L3.54232 17.2671M3.53186 22.284L2.82964 22.9864C3.51754 23.6742 4.36831 24.0929 5.25543 24.2474M3.53186 22.284L5.5972 23.2877M2.83556 16.5596C2.83571 16.5595 2.83586 16.5593 2.83601 16.5592L3.54232 17.2671M2.83556 16.5596C2.83547 16.5597 2.83538 16.5598 2.83529 16.5599L3.54232 17.2671M2.83556 16.5596C4.05448 15.3412 5.78508 14.943 7.34949 15.4162M3.54232 17.2671C4.63755 16.1721 6.25218 15.9266 7.59583 16.5841M7.34949 15.4162L6.88869 15.8771L7.59583 16.5841M7.34949 15.4162L15.9152 6.84989M7.34949 15.4162C7.58256 15.4867 7.81194 15.5766 8.03539 15.6859L7.59583 16.5841M7.59583 16.5841L15.9152 6.84989M15.9152 6.84989C15.4419 5.28553 15.8403 3.55501 17.0593 2.33634C18.8326 0.563329 21.7042 0.548635 23.4838 2.32786C24.1712 3.01514 24.5919 3.86713 24.7474 4.75551C25.6334 4.9099 26.4818 5.3279 27.1689 6.01219L27.1703 6.01356C28.9491 7.79183 28.9392 10.6687 27.1647 12.4429L27.1647 12.4429C25.9457 13.6616 24.2149 14.0598 22.6504 13.5865L14.0849 22.1501C14.5584 23.7135 14.1633 25.4441 12.9435 26.6637C11.1701 28.4367 8.29862 28.4514 6.51901 26.6722M15.9152 6.84989L7.22604 25.965M6.51901 26.6722L7.22604 25.965M6.51901 26.6722C6.51947 26.6726 6.51993 26.6731 6.52038 26.6735L7.22604 25.965M6.51901 26.6722C5.83127 25.9866 5.41082 25.1351 5.25543 24.2474M7.22604 25.965C6.6452 25.3865 6.30846 24.6566 6.21439 23.9013L6.23131 24.3113C5.90526 24.3248 5.57794 24.3035 5.25543 24.2474M5.25543 24.2474C5.19893 23.9246 5.17746 23.597 5.19093 23.2709L5.5972 23.2877M5.5972 23.2877C5.79375 23.3122 5.9921 23.3203 6.19008 23.3122L5.5972 23.2877Z" stroke="black" stroke-width="2"/>
</g>
<defs>
<filter id="filter0_d_209_1419" x="0.5" y="0" width="32" height="32" filterUnits="userSpaceOnUse" color-interpolation-filters="sRGB">
<feFlood flood-opacity="0" result="BackgroundImageFix"/>
<feColorMatrix in="SourceAlpha" type="matrix" values="0 0 0 0 0 0 0 0 0 0 0 0 0 0 0 0 0 0 127 0" result="hardAlpha"/>
<feOffset dx="3" dy="3"/>
<feComposite in2="hardAlpha" operator="out"/>
<feColorMatrix type="matrix" values="0 0 0 0 0 0 0 0 0 0 0 0 0 0 0 0 0 0 1 0"/>
<feBlend mode="normal" in2="BackgroundImageFix" result="effect1_dropShadow_209_1419"/>
<feBlend mode="normal" in="SourceGraphic" in2="effect1_dropShadow_209_1419" result="shape"/>
</filter>
</defs>
</svg>
