<svg width="33" height="26" viewBox="0 0 33 26" fill="none" xmlns="http://www.w3.org/2000/svg">
<g filter="url(#filter0_d_209_1418)">
<path fill-rule="evenodd" clip-rule="evenodd" d="M14.9998 4.39075C13.2786 4.39075 13.1069 4.57292 12.2161 4.57292C11.4738 4.57292 9.24686 2.75 8.1334 2.75C7.01993 2.75 5.72089 3.40625 5.72089 5.30208V7.48958C5.72314 8.0638 5.93109 9.82397 6.74495 9.35357C5.78274 10.4946 5.68553 11.825 5.69876 13.113C5.4396 13.1882 5.17519 13.2729 4.91858 13.3608C4.12338 13.6337 3.28004 13.9816 2.89906 14.2285C2.49447 14.4906 2.3783 15.0323 2.6396 15.4382C2.9009 15.8442 3.44071 15.9608 3.84529 15.6986C4.02694 15.5809 4.68393 15.2908 5.48285 15.0168C5.57113 14.9865 5.65958 14.9569 5.74757 14.9284C5.80137 15.4345 5.93489 15.8965 6.13337 16.3174L6.10595 16.3319C5.62955 16.5844 5.18749 16.8745 4.90562 17.0594C4.85685 17.0914 4.81287 17.1202 4.77435 17.1451C4.36975 17.4073 4.25359 17.949 4.51489 18.3549C4.77619 18.7609 5.316 18.8774 5.72059 18.6153C5.7684 18.5842 5.81936 18.5509 5.87313 18.5156C6.1584 18.3288 6.52314 18.0899 6.92081 17.8791C7.01405 17.8296 7.10378 17.7848 7.18961 17.7445C9.20154 19.6373 12.8136 20.25 14.9998 20.25C17.1859 20.25 20.798 19.6373 22.8099 17.7445C22.8958 17.7848 22.9854 17.8296 23.0787 17.8791C23.4763 18.0899 23.8411 18.3288 24.1263 18.5156C24.1801 18.5509 24.2311 18.5842 24.2789 18.6153C24.6835 18.8774 25.2233 18.7609 25.4846 18.3549C25.7459 17.949 25.6298 17.4073 25.2251 17.1451C25.1866 17.1202 25.1427 17.0914 25.0938 17.0594C24.812 16.8745 24.3699 16.5844 23.8935 16.3319L23.8662 16.3174C24.0647 15.8963 24.1982 15.4345 24.252 14.9283C24.3401 14.9568 24.4287 14.9863 24.5171 15.0168C25.316 15.2908 25.9731 15.5809 26.1547 15.6986C26.5593 15.9608 27.0991 15.8442 27.3604 15.4382C27.6217 15.0323 27.5055 14.4906 27.101 14.2285C26.72 13.9816 25.8766 13.6337 25.0814 13.3608C24.8247 13.2727 24.5601 13.1882 24.3008 13.1129C24.314 11.8249 24.2168 10.4946 23.2546 9.35357C24.0685 9.82397 24.2764 8.0638 24.2787 7.48958V5.30221C24.2787 3.40638 22.9796 2.75013 21.8661 2.75013C20.7527 2.75013 18.5258 4.57292 17.7834 4.57292C16.8927 4.57292 16.7211 4.39075 14.9998 4.39075ZM14.2142 15.1171C14.4498 15.0366 14.7278 15 14.9998 15C15.2718 15 15.5498 15.0366 15.7854 15.1171C15.9009 15.1566 16.0423 15.2189 16.1667 15.3194C16.2917 15.4204 16.4532 15.6074 16.4532 15.875C16.4532 16.1426 16.2917 16.3296 16.1667 16.4306C16.0423 16.5311 15.9009 16.5934 15.7854 16.6329C15.5498 16.7134 15.2718 16.75 14.9998 16.75C14.7278 16.75 14.4498 16.7134 14.2142 16.6329C14.0987 16.5934 13.9573 16.5311 13.8327 16.4306C13.7077 16.3296 13.5463 16.1426 13.5463 15.875C13.5463 15.6074 13.7077 15.4204 13.8327 15.3194C13.9573 15.2189 14.0987 15.1566 14.2142 15.1171ZM17.523 11.5006C17.6817 11.2341 17.995 10.9167 18.4648 10.9167C18.9347 10.9167 19.2479 11.2341 19.4065 11.5006C19.572 11.7785 19.6508 12.1153 19.6508 12.4479C19.6508 12.7805 19.572 13.1174 19.4065 13.3953C19.2479 13.6617 18.9347 13.9792 18.4648 13.9792C17.995 13.9792 17.6817 13.6617 17.523 13.3953C17.3575 13.1174 17.2788 12.7805 17.2788 12.4479C17.2788 12.1153 17.3575 11.7785 17.523 11.5006ZM10.593 11.5006C10.7516 11.2341 11.0649 10.9167 11.5348 10.9167C12.0047 10.9167 12.3179 11.2341 12.4765 11.5006C12.642 11.7785 12.7208 12.1153 12.7208 12.4479C12.7208 12.7805 12.642 13.1174 12.4765 13.3953C12.3179 13.6617 12.0047 13.9792 11.5348 13.9792C11.0649 13.9792 10.7516 13.6617 10.593 13.3953C10.4275 13.1174 10.3487 12.7805 10.3487 12.4479C10.3487 12.1153 10.4275 11.7785 10.593 11.5006Z" fill="#75F17A"/>
<path d="M4.72089 7.48958H4.72089V5.30208C4.72089 4.10573 5.14203 3.17543 5.85564 2.55857C6.54197 1.9653 7.39643 1.75 8.1334 1.75C8.63789 1.75 9.15075 1.94324 9.54959 2.12406C9.97586 2.31731 10.4195 2.56753 10.8143 2.79561C10.9009 2.84567 10.9847 2.89438 11.0659 2.94155C11.3725 3.1197 11.6412 3.27587 11.8809 3.39978C12.0296 3.47665 12.1415 3.52744 12.2216 3.55724C12.2411 3.56446 12.2559 3.5694 12.2665 3.57269C12.5419 3.57023 12.7199 3.54736 12.984 3.51343C13.0425 3.50591 13.1052 3.49785 13.1742 3.48935C13.5824 3.43903 14.0965 3.39075 14.9998 3.39075C15.9032 3.39075 16.4173 3.43903 16.8254 3.48935C16.8944 3.49785 16.9572 3.50592 17.0157 3.51344C17.2797 3.54736 17.4577 3.57023 17.7331 3.57269C17.7437 3.5694 17.7585 3.56446 17.778 3.55724C17.8581 3.52744 17.97 3.47665 18.1187 3.39979C18.3584 3.27589 18.6271 3.11974 18.9337 2.94161C19.0148 2.89444 19.0987 2.84572 19.1853 2.79566C19.58 2.5676 20.0237 2.3174 20.45 2.12416C20.8488 1.94335 21.3617 1.75013 21.8661 1.75013C22.6031 1.75013 23.4576 1.96543 24.1439 2.55868C24.8576 3.17553 25.2787 4.10583 25.2787 5.30221V7.48958V7.49363C25.2773 7.84422 25.2185 8.54469 25.0178 9.13518C24.9583 9.31014 24.8639 9.54565 24.7085 9.76903C25.1326 10.6448 25.2602 11.55 25.2924 12.3764C25.3304 12.3892 25.3683 12.402 25.4059 12.415L25.406 12.415C26.1997 12.6873 27.1496 13.0684 27.6447 13.3892L27.6448 13.3893C28.5129 13.9518 28.7601 15.1113 28.2013 15.9795C27.7782 16.6369 27.0127 16.9414 26.2885 16.808C26.7097 17.4139 26.7488 18.2386 26.3255 18.8961L26.3255 18.8962C25.7652 19.7663 24.6054 20.0183 23.7351 19.4545L23.7342 19.4539C23.6846 19.4217 23.6318 19.3871 23.5787 19.3524L23.5785 19.3522C23.381 19.2229 23.165 19.0817 22.9358 18.9458C21.8457 19.7765 20.5139 20.3222 19.2336 20.6717C17.7129 21.0869 16.1743 21.25 14.9998 21.25C13.8253 21.25 12.2866 21.0869 10.766 20.6717C9.48558 20.3222 8.15378 19.7765 7.06375 18.9458C6.83462 19.0817 6.61864 19.2228 6.42116 19.3521C6.36763 19.3872 6.31492 19.4217 6.26503 19.4541L6.26436 19.4545C5.39419 20.0183 4.23414 19.7664 3.67399 18.8961C3.25075 18.2385 3.28988 17.414 3.71092 16.8081C2.98686 16.9412 2.22171 16.6367 1.7987 15.9794C1.23986 15.1112 1.48713 13.9518 2.35526 13.3893L4.72089 7.48958ZM4.72089 7.48958L4.7209 7.49349C4.72227 7.84419 4.78105 8.54468 4.98178 9.13516C5.04125 9.31012 5.13563 9.54562 5.29109 9.769M4.72089 7.48958L5.29109 9.769M5.29109 9.769C4.86695 10.6448 4.73928 11.5501 4.70712 12.3766C4.66933 12.3893 4.63171 12.402 4.5943 12.4149L4.59399 12.415C3.80031 12.6873 2.85041 13.0684 2.35529 13.3892L5.29109 9.769ZM18.5473 12.0122L18.5472 12.012C18.5364 11.9938 18.5225 11.9742 18.507 11.9566C18.4916 11.939 18.4783 11.9275 18.4691 11.9209C18.4674 11.9198 18.466 11.9188 18.4648 11.918C18.4636 11.9188 18.4622 11.9198 18.4606 11.9209C18.4513 11.9276 18.438 11.9391 18.4225 11.9567C18.407 11.9744 18.3931 11.994 18.3821 12.0123C18.3239 12.1102 18.2788 12.2636 18.2788 12.4479C18.2788 12.6322 18.3239 12.7856 18.3821 12.8835L18.5473 12.0122ZM18.5473 12.0122C18.6057 12.1102 18.6508 12.2638 18.6508 12.4479C18.6508 12.6321 18.6057 12.7856 18.5473 12.8837L18.5472 12.8838M18.5473 12.0122L18.5472 12.8838M18.5472 12.8838C18.5364 12.9021 18.5225 12.9216 18.507 12.9392M18.5472 12.8838L18.507 12.9392M18.507 12.9392C18.4916 12.9568 18.4783 12.9683 18.4691 12.9749M18.507 12.9392L18.4691 12.9749M18.4691 12.9749C18.4674 12.9761 18.466 12.977 18.4648 12.9778M18.4691 12.9749L18.4648 12.9778M18.4648 12.9778C18.4636 12.977 18.4622 12.9761 18.4606 12.9749C18.4513 12.9683 18.438 12.9568 18.4225 12.9391C18.407 12.9215 18.3931 12.902 18.3822 12.8837L18.4648 12.9778ZM15.5381 15.6529C15.5382 15.6528 15.5382 15.6528 15.5382 15.6528L14.5376 16.0634C14.6438 16.0271 14.8076 16 14.9998 16C15.192 16 15.3557 16.0271 15.462 16.0634L15.4625 16.0636C15.4867 16.0718 15.5063 16.0801 15.5211 16.0876C15.5351 16.0946 15.54 16.0986 15.5386 16.0975C15.5385 16.0974 15.5383 16.0973 15.5381 16.0971C15.5336 16.0935 15.5185 16.0808 15.5006 16.0513C15.4939 16.0401 15.4869 16.0265 15.4804 16.011C15.4803 16.0108 15.4802 16.0105 15.4801 16.0103C15.4653 15.9745 15.4532 15.928 15.4532 15.875C15.4532 15.822 15.4653 15.7755 15.4801 15.7397C15.4802 15.7395 15.4803 15.7392 15.4804 15.739C15.4869 15.7235 15.4939 15.7099 15.5006 15.6987C15.5185 15.6692 15.5336 15.6565 15.5381 15.6529C15.5381 15.6529 15.5381 15.6529 15.5381 15.6529ZM11.4522 12.0122L11.4523 12.0121C11.4632 11.9938 11.477 11.9743 11.4925 11.9566C11.508 11.939 11.5213 11.9275 11.5305 11.9209C11.5321 11.9198 11.5336 11.9188 11.5348 11.918C11.536 11.9188 11.5374 11.9198 11.539 11.9209C11.5482 11.9275 11.5616 11.939 11.577 11.9566C11.5925 11.9743 11.6064 11.9938 11.6173 12.0121L11.6173 12.0122C11.6757 12.1102 11.7208 12.2637 11.7208 12.4479C11.7208 12.6322 11.6757 12.7857 11.6173 12.8837L11.6173 12.8837C11.6064 12.902 11.5925 12.9215 11.577 12.9392C11.5616 12.9568 11.5483 12.9683 11.539 12.9749C11.5374 12.9761 11.536 12.977 11.5348 12.9778C11.5336 12.977 11.5321 12.9761 11.5305 12.9749C11.5213 12.9683 11.508 12.9568 11.4925 12.9392C11.477 12.9216 11.4632 12.902 11.4523 12.8837L11.4522 12.8837C11.3939 12.7857 11.3487 12.6322 11.3487 12.4479C11.3487 12.2637 11.3939 12.1102 11.4522 12.0122Z" stroke="black" stroke-width="2"/>
</g>
<defs>
<filter id="filter0_d_209_1418" x="0.5" y="0.75" width="32" height="24.5" filterUnits="userSpaceOnUse" color-interpolation-filters="sRGB">
<feFlood flood-opacity="0" result="BackgroundImageFix"/>
<feColorMatrix in="SourceAlpha" type="matrix" values="0 0 0 0 0 0 0 0 0 0 0 0 0 0 0 0 0 0 127 0" result="hardAlpha"/>
<feOffset dx="3" dy="3"/>
<feComposite in2="hardAlpha" operator="out"/>
<feColorMatrix type="matrix" values="0 0 0 0 0 0 0 0 0 0 0 0 0 0 0 0 0 0 1 0"/>
<feBlend mode="normal" in2="BackgroundImageFix" result="effect1_dropShadow_209_1418"/>
<feBlend mode="normal" in="SourceGraphic" in2="effect1_dropShadow_209_1418" result="shape"/>
</filter>
</defs>
</svg>
