<svg width="33" height="32" viewBox="0 0 33 32" fill="none" xmlns="http://www.w3.org/2000/svg">
<g filter="url(#filter0_d_209_1416)">
<path fill-rule="evenodd" clip-rule="evenodd" d="M7.41716 10.8763C7.41716 10.8763 8.49358 11.3456 8.45542 12.5109C8.41777 13.6768 4.97366 14.1828 4.97366 18.7835C4.97366 23.3842 9.72892 27 15.02 27C20.3106 27 27.5 23.646 27.5 16.9188C27.5 5.62425 26.709 13.4506 18.4683 13.4506C15.7316 13.4506 15.2433 12.4402 15.6756 11.8641C17.7197 9.14391 18.4683 2 11.7965 2C7.4433 2.09782 6.39198 5.92731 6.39877 6.85514C6.40296 7.50706 5.76934 7.72756 2.57825 7.59469C1.77525 10.7717 7.41716 10.8763 7.41716 10.8763ZM9.38807 5.01531C9.96522 5.01531 10.4336 5.52248 10.4336 6.14612C10.4336 6.77033 9.96522 7.27694 9.38807 7.27694C8.81143 7.27694 8.34249 6.77033 8.34249 6.14612C8.34249 5.52248 8.81143 5.01531 9.38807 5.01531Z" fill="#FECA57"/>
<path d="M7.41716 10.8763C7.39862 11.8761 7.39833 11.8761 7.39801 11.8761L7.39726 11.8761L7.39537 11.8761L7.39005 11.876L7.37333 11.8755C7.35953 11.8751 7.34047 11.8746 7.31653 11.8737C7.27055 11.8719 7.20641 11.8691 7.1268 11.8644M7.41716 10.8763C7.01752 11.793 7.01711 11.7928 7.0167 11.7926L7.01591 11.7923L7.01439 11.7916L7.01162 11.7904L7.00709 11.7884L7.00194 11.786C7.0002 11.7852 7.00163 11.7858 7.00577 11.7879C7.01421 11.7923 7.03269 11.8022 7.05778 11.8177C7.07846 11.8305 7.1019 11.8461 7.1268 11.8644M7.41716 10.8763C7.41716 10.8763 3.02578 10.7949 2.54295 8.59409C2.54085 8.594 2.53875 8.59392 2.53665 8.59383L2.53767 8.5692C2.47886 8.28164 2.48635 7.95829 2.57825 7.59469C5.76934 7.72756 6.40296 7.50706 6.39877 6.85514M7.41716 10.8763L11.7965 2C7.4433 2.09782 6.39198 5.92731 6.39877 6.85514M7.1268 11.8644C7.16444 11.8921 7.20543 11.9259 7.2453 11.9655C7.35213 12.0718 7.43486 12.1993 7.45278 12.3778C7.41865 12.4159 7.35492 12.4815 7.24209 12.5789C7.17363 12.638 7.07984 12.7142 6.97018 12.8032C6.69685 13.0253 6.32493 13.3274 6.00095 13.6445C4.97296 14.6506 3.97366 16.175 3.97366 18.7835C3.97366 21.4496 5.35362 23.7716 7.38828 25.3981C9.4209 27.023 12.1542 28 15.02 28C17.8496 28 21.1697 27.11 23.808 25.3079C26.4676 23.4912 28.5 20.6912 28.5 16.9188C28.5 14.146 28.4571 12.3769 28.2206 11.381C28.1091 10.9116 27.8808 10.264 27.2522 9.9586C26.6234 9.65302 25.9977 9.88929 25.6689 10.0352C25.3199 10.19 24.9516 10.4032 24.5438 10.6393C23.1956 11.4198 21.4151 12.4506 18.4683 12.4506C17.4762 12.4506 16.9353 12.3049 16.6723 12.1859C17.7439 10.5772 18.4062 8.00274 17.988 5.73096C17.7611 4.49795 17.2034 3.29212 16.1532 2.3975C15.0983 1.49881 13.647 1 11.7965 1H11.7853L11.7741 1.00025C9.25751 1.0568 7.63024 2.21328 6.6598 3.52013C5.85432 4.60483 5.49298 5.80257 5.41519 6.5538C4.98374 6.63341 4.1573 6.65958 2.61985 6.59556L1.80788 6.56175L1.60874 7.34965C1.32521 8.47142 1.61575 9.41815 2.25638 10.1213C2.8438 10.766 3.66691 11.1451 4.38914 11.3785C5.13012 11.6179 5.88141 11.7402 6.43379 11.8038C6.71317 11.8359 6.94905 11.8539 7.11704 11.8639C7.12032 11.864 7.12357 11.8642 7.1268 11.8644ZM6.39877 6.85514L5.39879 6.86156C5.3988 6.86186 5.3988 6.86216 5.3988 6.86247L6.39877 6.85514ZM9.38328 6.02574C9.38506 6.02382 9.38668 6.02218 9.38814 6.02079C9.38961 6.02216 9.39121 6.02376 9.39293 6.02562C9.4114 6.0456 9.43364 6.08593 9.43364 6.14612C9.43364 6.20676 9.41129 6.24698 9.39305 6.26672C9.3913 6.26861 9.38966 6.27023 9.38817 6.27162C9.38664 6.2702 9.38497 6.26854 9.38316 6.26659C9.36475 6.24669 9.34249 6.20645 9.34249 6.14612C9.34249 6.08624 9.36465 6.04589 9.38328 6.02574ZM9.39628 6.01426C9.39747 6.01354 9.39809 6.01335 9.39809 6.01343C9.3981 6.01351 9.3975 6.01387 9.39628 6.01426Z" stroke="black" stroke-width="2"/>
</g>
<defs>
<filter id="filter0_d_209_1416" x="0.5" y="0" width="32" height="32" filterUnits="userSpaceOnUse" color-interpolation-filters="sRGB">
<feFlood flood-opacity="0" result="BackgroundImageFix"/>
<feColorMatrix in="SourceAlpha" type="matrix" values="0 0 0 0 0 0 0 0 0 0 0 0 0 0 0 0 0 0 127 0" result="hardAlpha"/>
<feOffset dx="3" dy="3"/>
<feComposite in2="hardAlpha" operator="out"/>
<feColorMatrix type="matrix" values="0 0 0 0 0 0 0 0 0 0 0 0 0 0 0 0 0 0 1 0"/>
<feBlend mode="normal" in2="BackgroundImageFix" result="effect1_dropShadow_209_1416"/>
<feBlend mode="normal" in="SourceGraphic" in2="effect1_dropShadow_209_1416" result="shape"/>
</filter>
</defs>
</svg>
