<svg width="31" height="32" viewBox="0 0 31 32" fill="none" xmlns="http://www.w3.org/2000/svg">
<g filter="url(#filter0_d_209_1420)">
<path d="M10.629 23.2158C10.629 24.212 10.6402 25.1649 10.6462 25.7563C10.6492 26.0492 10.835 26.3087 11.1091 26.4007C13.3849 27.1635 15.8366 27.199 18.1329 26.5021L18.4536 26.4047C18.7626 26.311 18.9748 26.023 18.9771 25.6955C18.9828 24.8804 18.9953 23.4535 18.9953 21.7715C18.9953 20.2458 18.4724 19.2694 17.8659 18.7608C21.5888 18.354 25.5 16.9707 25.5 10.7256C25.5 8.93554 24.8516 7.49124 23.785 6.35208C23.9522 5.94524 24.5378 4.27719 23.6176 2.03956C23.6176 2.03956 22.2163 1.59202 19.0162 3.70761C17.6776 3.34145 16.2553 3.15837 14.833 3.15837C13.4108 3.15837 11.9885 3.34145 10.6499 3.70761C7.44985 1.61237 6.04851 2.03956 6.04851 2.03956C5.12822 4.27719 5.71385 5.94524 5.88119 6.35208C4.81449 7.49124 4.1661 8.95588 4.1661 10.7256C4.1661 16.9504 8.05641 18.354 11.7794 18.7608C11.2983 19.1676 10.8591 19.8797 10.7127 20.9374C9.75056 21.3646 7.34527 22.0562 5.83935 19.5948C5.52562 19.1066 4.58441 17.9064 3.26673 17.9268C1.86539 17.9471 2.70202 18.6997 3.28765 19.005C3.99878 19.3914 4.81449 20.8357 5.00273 21.3036C5.33738 22.219 6.42498 23.9684 10.629 23.2158Z" fill="#FF9FF3"/>
<path d="M9.63324 24.3587C8.00112 24.5017 6.78714 24.2545 5.88606 23.7631C4.77749 23.1585 4.29338 22.267 4.07034 21.6655C4.00382 21.5055 3.79437 21.1002 3.51286 20.6839C3.20254 20.2249 2.9388 19.9564 2.81442 19.886C2.61523 19.7812 2.39925 19.642 2.2065 19.4841C2.03396 19.3428 1.77676 19.104 1.62649 18.7832C1.54594 18.6112 1.461 18.3401 1.51902 18.0187C1.58195 17.6701 1.78567 17.4111 2.01527 17.2471C2.39304 16.9773 2.87862 16.9324 3.25129 16.9269C3.2516 16.9269 3.25191 16.9269 3.25221 16.9269L3.26673 17.9268C3.32378 17.9259 3.38013 17.9273 3.43575 17.9309L9.63324 24.3587ZM9.63324 24.3587C9.63638 24.8171 9.64071 25.2327 9.64417 25.5649C9.64491 25.636 9.64562 25.7033 9.64626 25.7664C9.65347 26.4753 10.1037 27.1181 10.791 27.3487L10.7913 27.3488C13.2639 28.1777 15.9282 28.2162 18.4233 27.459L18.4235 27.4589L18.7438 27.3617C18.7439 27.3616 18.744 27.3616 18.7442 27.3615C19.4816 27.1377 19.9718 26.4577 19.9771 25.7026V25.7025C19.9778 25.5912 19.9788 25.4682 19.9797 25.3346C19.9859 24.4924 19.9953 23.227 19.9953 21.7715C19.9953 20.8984 19.845 20.1417 19.5855 19.5107C21.0305 19.2195 22.4963 18.6985 23.7112 17.7074C25.4378 16.2989 26.5 14.0765 26.5 10.7256C26.5 8.89981 25.9059 7.36717 24.9122 6.12674C25.1514 5.23494 25.3513 3.62598 24.5425 1.65922L24.3654 1.2286L23.9218 1.08695L23.6176 2.03956C23.9218 1.08695 23.9209 1.08665 23.9199 1.08635L23.918 1.08573L23.914 1.08449L23.9056 1.08192L23.8872 1.07651C23.8741 1.0728 23.8596 1.0689 23.8436 1.06491C23.8117 1.05691 23.7738 1.04855 23.7301 1.0406C23.6425 1.02467 23.5318 1.01047 23.3977 1.00389C23.1287 0.990689 22.7701 1.0083 22.3177 1.10029C21.4832 1.26996 20.3371 1.69089 18.8422 2.63004C17.5439 2.31476 16.1866 2.15837 14.833 2.15837C13.4787 2.15837 12.1204 2.31496 10.8215 2.63064C9.32714 1.70019 8.18293 1.28041 7.35162 1.10857C6.90106 1.01543 6.54435 0.995589 6.27719 1.00636C6.1439 1.01173 6.03404 1.02468 5.94711 1.03948C5.9037 1.04687 5.86617 1.0547 5.83444 1.06222C5.81859 1.06597 5.8042 1.06965 5.79128 1.07315L5.77299 1.07825L5.76468 1.08068L5.76073 1.08186L5.7588 1.08244C5.75785 1.08273 5.75691 1.08301 6.04851 2.03956L5.75691 1.08301L5.30383 1.22113L5.12367 1.65919C4.31465 3.62629 4.51472 5.2355 4.75407 6.12729C3.7594 7.37215 3.1661 8.91911 3.1661 10.7256C3.1661 14.0656 4.22249 16.2869 5.94231 17.698C7.15426 18.6924 8.6177 19.2172 10.0632 19.5102C9.97489 19.7249 9.8992 19.9544 9.83812 20.1984L9.63324 24.3587ZM3.04221 18.9461C3.03894 18.9471 3.03718 18.9475 3.03711 18.9474C3.03705 18.9474 3.03869 18.9469 3.04221 18.9461ZM3.39816 17.8668C3.39667 17.8651 3.396 17.8642 3.39603 17.8642C3.39607 17.8642 3.39682 17.8651 3.39816 17.8668Z" stroke="black" stroke-width="2"/>
</g>
<defs>
<filter id="filter0_d_209_1420" x="0.5" y="0" width="30" height="32" filterUnits="userSpaceOnUse" color-interpolation-filters="sRGB">
<feFlood flood-opacity="0" result="BackgroundImageFix"/>
<feColorMatrix in="SourceAlpha" type="matrix" values="0 0 0 0 0 0 0 0 0 0 0 0 0 0 0 0 0 0 127 0" result="hardAlpha"/>
<feOffset dx="3" dy="3"/>
<feComposite in2="hardAlpha" operator="out"/>
<feColorMatrix type="matrix" values="0 0 0 0 0 0 0 0 0 0 0 0 0 0 0 0 0 0 1 0"/>
<feBlend mode="normal" in2="BackgroundImageFix" result="effect1_dropShadow_209_1420"/>
<feBlend mode="normal" in="SourceGraphic" in2="effect1_dropShadow_209_1420" result="shape"/>
</filter>
</defs>
</svg>
