<svg width="23" height="32" viewBox="0 0 23 32" fill="none" xmlns="http://www.w3.org/2000/svg">
<g filter="url(#filter0_d_209_1417)">
<path d="M17.47 14.1723C17.4232 14.0027 17.3412 13.8448 17.2294 13.7091C17.1175 13.5733 16.9783 13.4628 16.8209 13.3847L12.5893 11.2843L13.7252 3.42025C13.7625 3.1477 13.7091 2.87043 13.5731 2.6314C13.4372 2.39236 13.2263 2.20491 12.9732 2.0981C12.7201 1.99128 12.4389 1.97106 12.1731 2.04057C11.9074 2.11008 11.6719 2.26543 11.5033 2.48256L2.76545 13.7347C2.64685 13.8864 2.56486 14.0635 2.52589 14.2522C2.48691 14.4409 2.492 14.6361 2.54077 14.8224C2.59587 15.0089 2.69164 15.1808 2.82117 15.3257C2.95069 15.4705 3.11073 15.5848 3.28972 15.6601L8.6198 17.798L7.48388 25.5745C7.44527 25.8536 7.50193 26.1376 7.64467 26.3805C7.78741 26.6233 8.00787 26.8107 8.27029 26.9123C8.41657 26.973 8.57381 27.0028 8.73214 26.9998C8.93774 26.9987 9.13989 26.9468 9.32064 26.8487C9.50138 26.7505 9.65512 26.6092 9.7682 26.4372L17.2578 15.185C17.3633 15.0412 17.4368 14.8764 17.4734 14.7017C17.51 14.527 17.5088 14.3465 17.47 14.1723Z" fill="#5F27CD"/>
<path d="M18.4406 13.9305L18.446 13.9546C18.5159 14.2679 18.518 14.5926 18.4521 14.9068C18.3881 15.2125 18.2611 15.5014 18.0795 15.7553L10.6038 26.9866C10.6032 26.9874 10.6026 26.9883 10.6021 26.9892C10.3987 27.2975 10.1226 27.5511 9.79785 27.7274C9.47377 27.9034 9.11139 27.997 8.74262 27.9998C8.74086 27.9998 8.73909 27.9998 8.73732 27.9998L8.73214 26.9998C8.57381 27.0028 8.41657 26.973 8.27029 26.9123L18.4406 13.9305ZM18.4406 13.9305L18.434 13.9067C18.35 13.6015 18.2025 13.3174 18.0011 13.0731C17.7998 12.8288 17.5491 12.6297 17.2655 12.4889C17.2655 12.4889 17.2654 12.4889 17.2654 12.4889L13.6825 10.7105L14.7149 3.56321L14.7149 3.56321L14.7159 3.55601C14.7831 3.06586 14.687 2.56711 14.4424 2.13701C14.1977 1.70688 13.8181 1.36925 13.362 1.17678C12.9059 0.984295 12.3991 0.947834 11.9201 1.07311C11.4411 1.19839 11.0171 1.47831 10.7135 1.86915L10.7135 1.86923L1.97764 13.1188C1.97723 13.1193 1.97682 13.1199 1.97642 13.1204C1.7636 13.3931 1.61653 13.7112 1.54656 14.0499C1.47646 14.3893 1.48562 14.7403 1.57333 15.0755L1.57731 15.0908L1.58176 15.1058C1.67878 15.4342 1.84745 15.7369 2.07569 15.9922C2.30394 16.2475 2.58606 16.4489 2.90174 16.5818L2.90957 16.5851L2.91745 16.5882L7.51645 18.4329L6.49438 25.43L6.49436 25.43L6.49332 25.4375C6.42387 25.9395 6.52574 26.4503 6.78259 26.8872C7.03734 27.3206 7.42983 27.6562 7.89755 27.8403L18.4406 13.9305Z" stroke="black" stroke-width="2"/>
</g>
<defs>
<filter id="filter0_d_209_1417" x="0.5" y="0" width="22" height="32" filterUnits="userSpaceOnUse" color-interpolation-filters="sRGB">
<feFlood flood-opacity="0" result="BackgroundImageFix"/>
<feColorMatrix in="SourceAlpha" type="matrix" values="0 0 0 0 0 0 0 0 0 0 0 0 0 0 0 0 0 0 127 0" result="hardAlpha"/>
<feOffset dx="3" dy="3"/>
<feComposite in2="hardAlpha" operator="out"/>
<feColorMatrix type="matrix" values="0 0 0 0 0 0 0 0 0 0 0 0 0 0 0 0 0 0 1 0"/>
<feBlend mode="normal" in2="BackgroundImageFix" result="effect1_dropShadow_209_1417"/>
<feBlend mode="normal" in="SourceGraphic" in2="effect1_dropShadow_209_1417" result="shape"/>
</filter>
</defs>
</svg>
