<svg width="33" height="30" viewBox="0 0 33 30" fill="none" xmlns="http://www.w3.org/2000/svg">
<g filter="url(#filter0_d_209_1424)">
<path d="M2.5 10.0588C2.5 16.1321 7.52429 19.3685 11.2022 22.2654C12.5 23.2876 13.75 24.25 15 24.25C16.25 24.25 17.5 23.2876 18.7979 22.2654C22.4757 19.3685 27.5 16.1321 27.5 10.0588C27.5 3.98548 20.6248 -0.321614 15 5.51722C9.3752 -0.321614 2.5 3.98548 2.5 10.0588Z" fill="#EE5253"/>
<path d="M19.4166 23.051L18.8163 22.2887L19.4166 23.0509C19.7451 22.7922 20.0908 22.5263 20.4475 22.2519C22.0234 21.0396 23.8135 19.6625 25.2756 18.0176C27.1028 15.9618 28.5 13.4078 28.5 10.0588C28.5 6.64753 26.5678 3.68695 23.7747 2.41133C21.1396 1.20787 17.8961 1.56708 15 4.13183C12.1039 1.56708 8.86037 1.20787 6.22527 2.41133C3.43216 3.68695 1.5 6.64753 1.5 10.0588C1.5 13.4079 2.89718 15.9618 4.72445 18.0176C6.18651 19.6625 7.97664 21.0396 9.55253 22.2519C9.90923 22.5263 10.255 22.7922 10.5834 23.0509C11.2231 23.5548 11.9139 24.0954 12.6148 24.5046C13.3155 24.9137 14.1214 25.25 15 25.25C15.8786 25.25 16.6845 24.9137 17.3852 24.5046C18.0861 24.0954 18.7769 23.5548 19.4166 23.051Z" stroke="black" stroke-width="2"/>
</g>
<defs>
<filter id="filter0_d_209_1424" x="0.5" y="0.748047" width="32" height="28.502" filterUnits="userSpaceOnUse" color-interpolation-filters="sRGB">
<feFlood flood-opacity="0" result="BackgroundImageFix"/>
<feColorMatrix in="SourceAlpha" type="matrix" values="0 0 0 0 0 0 0 0 0 0 0 0 0 0 0 0 0 0 127 0" result="hardAlpha"/>
<feOffset dx="3" dy="3"/>
<feComposite in2="hardAlpha" operator="out"/>
<feColorMatrix type="matrix" values="0 0 0 0 0 0 0 0 0 0 0 0 0 0 0 0 0 0 1 0"/>
<feBlend mode="normal" in2="BackgroundImageFix" result="effect1_dropShadow_209_1424"/>
<feBlend mode="normal" in="SourceGraphic" in2="effect1_dropShadow_209_1424" result="shape"/>
</filter>
</defs>
</svg>
