<svg width="100" height="35" viewBox="0 0 100 35" fill="none" xmlns="http://www.w3.org/2000/svg">
<g clip-path="url(#clip0_337_117)">
<path d="M98.2609 0H1.73913C0.778635 0 0 0.783502 0 1.75V33.25C0 34.2165 0.778635 35 1.73913 35H98.2609C99.2214 35 100 34.2165 100 33.25V1.75C100 0.783502 99.2214 0 98.2609 0Z" fill="#F01E24"/>
<path d="M12.1739 8.75H10.4348C9.47431 8.75 8.69568 9.5335 8.69568 10.5V24.5C8.69568 25.4665 9.47431 26.25 10.4348 26.25H12.1739C13.1344 26.25 13.9131 25.4665 13.9131 24.5V10.5C13.9131 9.5335 13.1344 8.75 12.1739 8.75Z" fill="white"/>
<path d="M18.2609 10.5H16.5217C15.5612 10.5 14.7826 11.2835 14.7826 12.25V17.5C14.7826 18.4665 15.5612 19.25 16.5217 19.25H18.2609C19.2213 19.25 20 18.4665 20 17.5V12.25C20 11.2835 19.2213 10.5 18.2609 10.5Z" fill="white"/>
<path d="M24.3478 8.75H22.6086C21.6481 8.75 20.8695 9.5335 20.8695 10.5V24.5C20.8695 25.4665 21.6481 26.25 22.6086 26.25H24.3478C25.3083 26.25 26.0869 25.4665 26.0869 24.5V10.5C26.0869 9.5335 25.3083 8.75 24.3478 8.75Z" fill="white"/>
<path d="M46.087 8.75H32.1739C31.2134 8.75 30.4348 9.5335 30.4348 10.5V24.5C30.4348 25.4665 31.2134 26.25 32.1739 26.25H46.087C47.0475 26.25 47.8261 25.4665 47.8261 24.5V10.5C47.8261 9.5335 47.0475 8.75 46.087 8.75Z" fill="white"/>
<path d="M55.6522 8.75H53.9131C52.9526 8.75 52.174 9.5335 52.174 10.5V24.5C52.174 25.4665 52.9526 26.25 53.9131 26.25H55.6522C56.6127 26.25 57.3913 25.4665 57.3913 24.5V10.5C57.3913 9.5335 56.6127 8.75 55.6522 8.75Z" fill="white"/>
<path d="M61.7391 13.125H60C59.0395 13.125 58.2609 13.9085 58.2609 14.875V20.125C58.2609 21.0915 59.0395 21.875 60 21.875H61.7391C62.6996 21.875 63.4783 21.0915 63.4783 20.125V14.875C63.4783 13.9085 62.6996 13.125 61.7391 13.125Z" fill="white"/>
<path d="M67.826 8.75H66.0869C65.1264 8.75 64.3478 9.5335 64.3478 10.5V24.5C64.3478 25.4665 65.1264 26.25 66.0869 26.25H67.826C68.7865 26.25 69.5652 25.4665 69.5652 24.5V10.5C69.5652 9.5335 68.7865 8.75 67.826 8.75Z" fill="white"/>
<path d="M89.5653 8.75H75.6522C74.6917 8.75 73.9131 9.5335 73.9131 10.5V24.5C73.9131 25.4665 74.6917 26.25 75.6522 26.25H89.5653C90.5258 26.25 91.3044 25.4665 91.3044 24.5V10.5C91.3044 9.5335 90.5258 8.75 89.5653 8.75Z" fill="white"/>
</g>
<defs>
<clipPath id="clip0_337_117">
<rect width="100" height="35" fill="white"/>
</clipPath>
</defs>
</svg>
