<svg width="29" height="32" viewBox="0 0 29 32" fill="none" xmlns="http://www.w3.org/2000/svg">
<g filter="url(#filter0_d_209_1423)">
<path d="M15.8486 2.02301C14.2916 1.84064 12.8143 2.75751 12.2805 4.23745C12.1602 4.57098 12.1179 4.93158 12.0982 5.30956C12.0833 5.59471 12.0796 5.93461 12.0789 6.33494L12.0785 6.89627C12.0785 6.90221 12.0785 6.90813 12.0785 6.91403V16.866C11.0346 15.8821 9.63024 15.2795 8.08568 15.2795C4.86273 15.2795 2.25 17.9032 2.25 21.1398C2.25 24.3763 4.86273 27 8.08568 27C11.3087 27 13.9214 24.3763 13.9214 21.1398V10.296C14.0501 10.3649 14.1896 10.4348 14.3424 10.5115L17.6687 12.1816C18.1826 12.4396 18.6008 12.6496 18.9435 12.7996C19.2889 12.9508 19.629 13.0742 19.9799 13.1153C21.5367 13.2976 23.0141 12.3807 23.5479 10.9009C23.6683 10.5673 23.7104 10.2067 23.7303 9.82874C23.7499 9.45389 23.7499 8.98441 23.7499 8.40746L23.75 8.30527C23.7501 7.87624 23.7502 7.54062 23.6897 7.22256C23.5336 6.40384 23.0829 5.67147 22.4235 5.16517C22.1672 4.96848 21.8683 4.81853 21.4861 4.62683L18.1598 2.95671C17.6459 2.69868 17.2277 2.48869 16.885 2.3387C16.5395 2.18744 16.1995 2.0641 15.8486 2.02301Z" fill="#FF9F43"/>
<path d="M15.9649 1.0298L15.8486 2.02301L15.9649 1.0298ZM15.9649 1.0298C13.9441 0.793092 12.0304 1.98345 11.3398 3.89815L11.3398 3.89822M15.9649 1.0298C16.4643 1.08828 16.9125 1.25909 17.286 1.42263L11.3398 3.89822M11.3398 3.89822C11.1692 4.37126 11.1209 4.84883 11.0995 5.2573L11.0995 5.25749M11.3398 3.89822L11.0995 5.25749M11.0995 5.25749C11.0832 5.57015 11.0796 5.93227 11.0789 6.3331L11.0789 6.33428M11.0995 5.25749L11.0789 6.33428M11.0789 6.33428L11.0785 6.89562V6.89627M11.0789 6.33428L11.0785 6.89627M11.0785 6.89627V6.89631V6.89634V6.89638V6.89641V6.89645V6.89648V6.89652V6.89655V6.89659V6.89662V6.89666V6.89669V6.89673V6.89676V6.8968V6.89683V6.89687V6.8969V6.89693V6.89697V6.897V6.89704V6.89707V6.89711V6.89714V6.89718V6.89721V6.89725V6.89728V6.89732V6.89735V6.89739V6.89742V6.89746V6.89749V6.89753V6.89756V6.8976V6.89763V6.89766V6.8977V6.89773V6.89777V6.8978V6.89784V6.89787V6.89791V6.89794V6.89798V6.89801V6.89805V6.89808V6.89812V6.89815V6.89819V6.89822V6.89826V6.89829V6.89832V6.89836V6.89839V6.89843V6.89846V6.8985V6.89853V6.89857V6.8986V6.89864V6.89867V6.89871V6.89874V6.89878V6.89881V6.89885V6.89888V6.89892V6.89895V6.89899V6.89902V6.89906V6.89909V6.89912V6.89916V6.89919V6.89923V6.89926V6.8993V6.89933V6.89937V6.8994V6.89944V6.89947V6.89951V6.89954V6.89958V6.89961V6.89965V6.89968V6.89971V6.89975V6.89978V6.89982V6.89985V6.89989V6.89992V6.89996V6.89999V6.90003V6.90006V6.9001V6.90013V6.90017V6.9002V6.90024V6.90027V6.90031V6.90034V6.90037V6.90041V6.90044V6.90048V6.90051V6.90055V6.90058V6.90062V6.90065V6.90069V6.90072V6.90076V6.90079V6.90083V6.90086V6.9009V6.90093V6.90097V6.901V6.90103V6.90107V6.9011V6.90114V6.90117V6.90121V6.90124V6.90128V6.90131V6.90135V6.90138V6.90142V6.90145V6.90149V6.90152V6.90156V6.90159V6.90163V6.90166V6.90169V6.90173V6.90176V6.9018V6.90183V6.90187V6.9019V6.90194V6.90197V6.90201V6.90204V6.90208V6.90211V6.90215V6.90218V6.90222V6.90225V6.90229V6.90232V6.90235V6.90239V6.90242V6.90246V6.90249V6.90253V6.90256V6.9026V6.90263V6.90267V6.9027V6.90274V6.90277V6.90281V6.90284V6.90287V6.90291V6.90294V6.90298V6.90301V6.90305V6.90308V6.90312V6.90315V6.90319V6.90322V6.90326V6.90329V6.90333V6.90336V6.9034V6.90343V6.90346V6.9035V6.90353V6.90357V6.9036V6.90364V6.90367V6.90371V6.90374V6.90378V6.90381V6.90385V6.90388V6.90392V6.90395V6.90399V6.90402V6.90405V6.90409V6.90412V6.90416V6.90419V6.90423V6.90426V6.9043V6.90433V6.90437V6.9044V6.90444V6.90447V6.90451V6.90454V6.90458V6.90461V6.90464V6.90468V6.90471V6.90475V6.90478V6.90482V6.90485V6.90489V6.90492V6.90496V6.90499V6.90503V6.90506V6.9051V6.90513V6.90516V6.9052V6.90523V6.90527V6.9053V6.90534V6.90537V6.90541V6.90544V6.90548V6.90551V6.90555V6.90558V6.90562V6.90565V6.90568V6.90572V6.90575V6.90579V6.90582V6.90586V6.90589V6.90593V6.90596V6.906V6.90603V6.90607V6.9061V6.90614V6.90617V6.90621V6.90624V6.90627V6.90631V6.90634V6.90638V6.90641V6.90645V6.90648V6.90652V6.90655V6.90659V6.90662V6.90666V6.90669V6.90672V6.90676V6.90679V6.90683V6.90686V6.9069V6.90693V6.90697V6.907V6.90704V6.90707V6.90711V6.90714V6.90718V6.90721V6.90725V6.90728V6.90731V6.90735V6.90738V6.90742V6.90745V6.90749V6.90752V6.90756V6.90759V6.90763V6.90766V6.9077V6.90773V6.90776V6.9078V6.90783V6.90787V6.9079V6.90794V6.90797V6.90801V6.90804V6.90808V6.90811V6.90815V6.90818V6.90822V6.90825V6.90828V6.90832V6.90835V6.90839V6.90842V6.90846V6.90849V6.90853V6.90856V6.9086V6.90863V6.90867V6.9087V6.90873V6.90877V6.9088V6.90884V6.90887V6.90891V6.90894V6.90898V6.90901V6.90905V6.90908V6.90912V6.90915V6.90918V6.90922V6.90925V6.90929V6.90932V6.90936V6.90939V6.90943V6.90946V6.9095V6.90953V6.90957V6.9096V6.90964V6.90967V6.9097V6.90974V6.90977V6.90981V6.90984V6.90988V6.90991V6.90995V6.90998V6.91002V6.91005V6.91009V6.91012V6.91015V6.91019V6.91022V6.91026V6.91029V6.91033V6.91036V6.9104V6.91043V6.91047V6.9105V6.91053V6.91057V6.9106V6.91064V6.91067V6.91071V6.91074V6.91078V6.91081V6.91085V6.91088V6.91092V6.91095V6.91098V6.91102V6.91105V6.91109V6.91112V6.91116V6.91119V6.91123V6.91126V6.9113V6.91133V6.91137V6.9114V6.91143V6.91147V6.9115V6.91154V6.91157V6.91161V6.91164V6.91168V6.91171V6.91175V6.91178V6.91182V6.91185V6.91188V6.91192V6.91195V6.91199V6.91202V6.91206V6.91209V6.91213V6.91216V6.9122V6.91223V6.91226V6.9123V6.91233V6.91237V6.9124V6.91244V6.91247V6.91251V6.91254V6.91258V6.91261V6.91265V6.91268V6.91271V6.91275V6.91278V6.91282V6.91285V6.91289V6.91292V6.91296V6.91299V6.91303V6.91306V6.91309V6.91313V6.91316V6.9132V6.91323V6.91327V6.9133V6.91334V6.91337V6.91341V6.91344V6.91347V6.91351V6.91354V6.91358V6.91361V6.91365V6.91368V6.91372V6.91375V6.91379V6.91382V6.91386V6.91389V6.91392V6.91396V6.91399V6.91403V14.9705M11.0785 6.89627V14.9705M11.0785 14.9705C10.1747 14.5281 9.15883 14.2795 8.08568 14.2795C4.30649 14.2795 1.25 17.3549 1.25 21.1398C1.25 24.9247 4.30649 28 8.08568 28C11.8649 28 14.9214 24.9247 14.9214 21.1398V11.9211L17.22 13.0753L17.2201 13.0753L17.245 13.0878C17.7396 13.3361 18.1763 13.5553 18.5424 13.7156L18.9435 12.7996L18.5424 13.7156C18.9159 13.8791 19.3641 14.05 19.8636 14.1085C21.8842 14.3452 23.7978 13.1549 24.4885 11.2404C24.6593 10.7671 24.7075 10.2892 24.729 9.88132L24.729 9.88078C24.7499 9.47977 24.7499 8.98866 24.7499 8.43156V8.40866V8.40746L24.75 8.30647V8.30556C24.75 8.28968 24.75 8.27376 24.75 8.25779C24.7503 7.86714 24.7505 7.44774 24.672 7.03549L24.672 7.03536C24.4702 5.97634 23.8869 5.02808 23.0325 4.37202L23.0324 4.37188C22.6993 4.11627 22.3248 3.92857 21.9765 3.75405C21.9626 3.74706 21.9487 3.7401 21.9348 3.73315C21.9348 3.73315 21.9348 3.73314 21.9348 3.73314C21.9347 3.73308 21.9346 3.73302 21.9344 3.73296L18.6085 2.06304L18.6085 2.06303L18.5867 2.05208C18.0907 1.80306 17.653 1.58327 17.2861 1.42265L11.0785 14.9705Z" stroke="black" stroke-width="2"/>
</g>
<defs>
<filter id="filter0_d_209_1423" x="0.25" y="0" width="28.5" height="32" filterUnits="userSpaceOnUse" color-interpolation-filters="sRGB">
<feFlood flood-opacity="0" result="BackgroundImageFix"/>
<feColorMatrix in="SourceAlpha" type="matrix" values="0 0 0 0 0 0 0 0 0 0 0 0 0 0 0 0 0 0 127 0" result="hardAlpha"/>
<feOffset dx="3" dy="3"/>
<feComposite in2="hardAlpha" operator="out"/>
<feColorMatrix type="matrix" values="0 0 0 0 0 0 0 0 0 0 0 0 0 0 0 0 0 0 1 0"/>
<feBlend mode="normal" in2="BackgroundImageFix" result="effect1_dropShadow_209_1423"/>
<feBlend mode="normal" in="SourceGraphic" in2="effect1_dropShadow_209_1423" result="shape"/>
</filter>
</defs>
</svg>
